<svg width="347" height="293" viewBox="0 0 347 293" fill="none" xmlns="http://www.w3.org/2000/svg">
<path d="M104.033 10.06V25.57C104.033 26.45 103.883 27.25 103.583 27.97C103.303 28.69 102.893 29.3 102.353 29.8C101.833 30.3 101.203 30.69 100.463 30.97C99.723 31.23 98.913 31.36 98.033 31.36C96.413 31.36 95.103 30.93 94.103 30.07C93.123 29.19 92.493 28.03 92.213 26.59L94.493 26.05C94.693 26.95 95.073 27.69 95.633 28.27C96.193 28.83 97.013 29.11 98.093 29.11C99.173 29.11 100.013 28.78 100.613 28.12C101.213 27.46 101.513 26.46 101.513 25.12V12.28H94.313V10.06H104.033ZM111.826 10.06V23.02C111.826 25.02 112.196 26.54 112.936 27.58C113.676 28.6 114.976 29.11 116.836 29.11C118.696 29.11 119.996 28.6 120.736 27.58C121.476 26.54 121.846 25.02 121.846 23.02V10.06H124.366V22.42C124.366 23.94 124.226 25.26 123.946 26.38C123.686 27.5 123.256 28.43 122.656 29.17C122.056 29.91 121.266 30.46 120.286 30.82C119.326 31.18 118.146 31.36 116.746 31.36C115.346 31.36 114.166 31.18 113.206 30.82C112.266 30.46 111.506 29.91 110.926 29.17C110.346 28.43 109.926 27.5 109.666 26.38C109.426 25.26 109.306 23.94 109.306 22.42V10.06H111.826ZM129.788 31V10.06H132.308V28.78H141.218V31H129.788ZM147.391 31V22.72L140.191 10.06H143.071L148.651 20.14H148.741L154.321 10.06H157.201L149.911 22.63V31H147.391ZM180.664 31H166.924V28.42L173.764 22.12C174.744 21.22 175.564 20.27 176.224 19.27C176.884 18.25 177.214 17.23 177.214 16.21V15.85C177.214 14.69 176.894 13.75 176.254 13.03C175.614 12.31 174.644 11.95 173.344 11.95C172.704 11.95 172.144 12.04 171.664 12.22C171.184 12.4 170.764 12.65 170.404 12.97C170.064 13.29 169.774 13.67 169.534 14.11C169.314 14.53 169.134 14.99 168.994 15.49L166.744 14.62C166.944 14 167.214 13.4 167.554 12.82C167.914 12.22 168.354 11.69 168.874 11.23C169.414 10.77 170.054 10.4 170.794 10.12C171.554 9.84 172.444 9.7 173.464 9.7C174.484 9.7 175.394 9.85 176.194 10.15C176.994 10.45 177.664 10.87 178.204 11.41C178.744 11.95 179.154 12.59 179.434 13.33C179.734 14.07 179.884 14.89 179.884 15.79C179.884 16.61 179.764 17.37 179.524 18.07C179.304 18.77 178.994 19.44 178.594 20.08C178.194 20.7 177.704 21.31 177.124 21.91C176.564 22.51 175.954 23.11 175.294 23.71L169.654 28.78H180.664V31ZM191.662 31.36C189.162 31.36 187.332 30.41 186.172 28.51C185.032 26.61 184.462 23.95 184.462 20.53C184.462 17.11 185.032 14.45 186.172 12.55C187.332 10.65 189.162 9.7 191.662 9.7C194.162 9.7 195.982 10.65 197.122 12.55C198.282 14.45 198.862 17.11 198.862 20.53C198.862 23.95 198.282 26.61 197.122 28.51C195.982 30.41 194.162 31.36 191.662 31.36ZM191.662 29.17C192.482 29.17 193.182 29 193.762 28.66C194.342 28.32 194.812 27.84 195.172 27.22C195.532 26.6 195.792 25.87 195.952 25.03C196.132 24.19 196.222 23.26 196.222 22.24V18.82C196.222 17.8 196.132 16.87 195.952 16.03C195.792 15.19 195.532 14.46 195.172 13.84C194.812 13.22 194.342 12.74 193.762 12.4C193.182 12.06 192.482 11.89 191.662 11.89C190.842 11.89 190.142 12.06 189.562 12.4C188.982 12.74 188.512 13.22 188.152 13.84C187.792 14.46 187.522 15.19 187.342 16.03C187.182 16.87 187.102 17.8 187.102 18.82V22.24C187.102 23.26 187.182 24.19 187.342 25.03C187.522 25.87 187.792 26.6 188.152 27.22C188.512 27.84 188.982 28.32 189.562 28.66C190.142 29 190.842 29.17 191.662 29.17ZM216.64 31H202.9V28.42L209.74 22.12C210.72 21.22 211.54 20.27 212.2 19.27C212.86 18.25 213.19 17.23 213.19 16.21V15.85C213.19 14.69 212.87 13.75 212.23 13.03C211.59 12.31 210.62 11.95 209.32 11.95C208.68 11.95 208.12 12.04 207.64 12.22C207.16 12.4 206.74 12.65 206.38 12.97C206.04 13.29 205.75 13.67 205.51 14.11C205.29 14.53 205.11 14.99 204.97 15.49L202.72 14.62C202.92 14 203.19 13.4 203.53 12.82C203.89 12.22 204.33 11.69 204.85 11.23C205.39 10.77 206.03 10.4 206.77 10.12C207.53 9.84 208.42 9.7 209.44 9.7C210.46 9.7 211.37 9.85 212.17 10.15C212.97 10.45 213.64 10.87 214.18 11.41C214.72 11.95 215.13 12.59 215.41 13.33C215.71 14.07 215.86 14.89 215.86 15.79C215.86 16.61 215.74 17.37 215.5 18.07C215.28 18.77 214.97 19.44 214.57 20.08C214.17 20.7 213.68 21.31 213.1 21.91C212.54 22.51 211.93 23.11 211.27 23.71L205.63 28.78H216.64V31ZM221.279 31V28.78H227.129V11.92H226.919L221.639 16.84L220.169 15.25L225.719 10.06H229.649V28.78H235.049V31H221.279Z" fill="black"/>
<path d="M2.03539 25.8V24.68L10.5154 19.64V20.84L3.13539 25.18V25.3L10.5154 29.64V30.84L2.03539 25.8ZM24.9741 17.04V27.36C24.9741 28.6 24.6275 29.56 23.9341 30.24C23.2541 30.9067 22.3408 31.24 21.1941 31.24C20.2075 31.24 19.3941 30.9733 18.7541 30.44C18.1141 29.9067 17.7008 29.2 17.5141 28.32L18.5741 28.06C18.7341 28.6733 19.0275 29.18 19.4541 29.58C19.8941 29.98 20.4875 30.18 21.2341 30.18C22.0741 30.18 22.7075 29.9267 23.1341 29.42C23.5608 28.9133 23.7741 28.1667 23.7741 27.18V18.1H18.9341V17.04H24.9741ZM29.9174 17.04V25.66C29.9174 26.4333 29.9774 27.1067 30.0974 27.68C30.2174 28.24 30.4174 28.7067 30.6974 29.08C30.9774 29.44 31.3508 29.7133 31.8174 29.9C32.2841 30.0733 32.8574 30.16 33.5374 30.16C34.2174 30.16 34.7841 30.0733 35.2374 29.9C35.7041 29.7133 36.0774 29.44 36.3574 29.08C36.6508 28.7067 36.8574 28.24 36.9774 27.68C37.0974 27.1067 37.1574 26.4333 37.1574 25.66V17.04H38.3574V25.4C38.3574 26.4267 38.2708 27.3067 38.0974 28.04C37.9241 28.7733 37.6441 29.38 37.2574 29.86C36.8841 30.3267 36.3841 30.6733 35.7574 30.9C35.1441 31.1267 34.3908 31.24 33.4974 31.24C32.6041 31.24 31.8508 31.1267 31.2374 30.9C30.6241 30.6733 30.1308 30.3267 29.7574 29.86C29.3841 29.38 29.1174 28.7733 28.9574 28.04C28.7974 27.3067 28.7174 26.4267 28.7174 25.4V17.04H29.9174ZM43.4168 18.68H43.3568V31H42.1968V17.04H43.6968L51.0368 29.36H51.0968V17.04H52.2568V31H50.7568L43.4168 18.68ZM56.2202 31V17.04H64.3802V18.1H57.4202V23.38H64.0402V24.44H57.4202V29.94H64.3802V31H56.2202Z" fill="black"/>
<path d="M265.802 31L264.282 26.66H258.342L256.822 31H255.622L260.562 17.04H262.102L267.062 31H265.802ZM261.342 18.18H261.262L258.642 25.62H263.962L261.342 18.18ZM270.408 17.04V25.66C270.408 26.4333 270.468 27.1067 270.588 27.68C270.708 28.24 270.908 28.7067 271.188 29.08C271.468 29.44 271.841 29.7133 272.308 29.9C272.774 30.0733 273.348 30.16 274.028 30.16C274.708 30.16 275.274 30.0733 275.728 29.9C276.194 29.7133 276.568 29.44 276.848 29.08C277.141 28.7067 277.348 28.24 277.468 27.68C277.588 27.1067 277.648 26.4333 277.648 25.66V17.04H278.848V25.4C278.848 26.4267 278.761 27.3067 278.588 28.04C278.414 28.7733 278.134 29.38 277.748 29.86C277.374 30.3267 276.874 30.6733 276.248 30.9C275.634 31.1267 274.881 31.24 273.988 31.24C273.094 31.24 272.341 31.1267 271.728 30.9C271.114 30.6733 270.621 30.3267 270.248 29.86C269.874 29.38 269.608 28.7733 269.448 28.04C269.288 27.3067 269.208 26.4267 269.208 25.4V17.04H270.408ZM291.767 28.86H291.707C291.454 29.58 290.974 30.16 290.267 30.6C289.574 31.0267 288.687 31.24 287.607 31.24C286.74 31.24 285.96 31.0867 285.267 30.78C284.574 30.4733 283.98 30.0133 283.487 29.4C283.007 28.7867 282.634 28.0333 282.367 27.14C282.1 26.2467 281.967 25.2067 281.967 24.02C281.967 22.8467 282.1 21.8133 282.367 20.92C282.634 20.0133 283.014 19.26 283.507 18.66C284 18.0467 284.6 17.5867 285.307 17.28C286.014 16.96 286.807 16.8 287.687 16.8C288.887 16.8 289.894 17.0733 290.707 17.62C291.52 18.1667 292.14 18.8867 292.567 19.78L291.587 20.36C291.24 19.5867 290.734 18.98 290.067 18.54C289.4 18.1 288.607 17.88 287.687 17.88C287.007 17.88 286.394 18 285.847 18.24C285.3 18.48 284.834 18.8267 284.447 19.28C284.06 19.7333 283.76 20.2867 283.547 20.94C283.347 21.5933 283.247 22.3333 283.247 23.16V24.86C283.247 26.54 283.647 27.8467 284.447 28.78C285.26 29.7 286.374 30.16 287.787 30.16C288.32 30.16 288.82 30.0933 289.287 29.96C289.767 29.8133 290.187 29.6 290.547 29.32C290.907 29.04 291.187 28.6867 291.387 28.26C291.6 27.8333 291.707 27.3333 291.707 26.76V25.08H288.447V24.04H292.887V31H291.767V28.86ZM297.439 17.04V25.66C297.439 26.4333 297.499 27.1067 297.619 27.68C297.739 28.24 297.939 28.7067 298.219 29.08C298.499 29.44 298.872 29.7133 299.339 29.9C299.806 30.0733 300.379 30.16 301.059 30.16C301.739 30.16 302.306 30.0733 302.759 29.9C303.226 29.7133 303.599 29.44 303.879 29.08C304.172 28.7067 304.379 28.24 304.499 27.68C304.619 27.1067 304.679 26.4333 304.679 25.66V17.04H305.879V25.4C305.879 26.4267 305.792 27.3067 305.619 28.04C305.446 28.7733 305.166 29.38 304.779 29.86C304.406 30.3267 303.906 30.6733 303.279 30.9C302.666 31.1267 301.912 31.24 301.019 31.24C300.126 31.24 299.372 31.1267 298.759 30.9C298.146 30.6733 297.652 30.3267 297.279 29.86C296.906 29.38 296.639 28.7733 296.479 28.04C296.319 27.3067 296.239 26.4267 296.239 25.4V17.04H297.439ZM313.418 31.24C312.272 31.24 311.312 31.0267 310.538 30.6C309.778 30.16 309.125 29.58 308.578 28.86L309.478 28.12C309.972 28.7733 310.525 29.28 311.138 29.64C311.765 30 312.538 30.18 313.458 30.18C314.538 30.18 315.365 29.9267 315.938 29.42C316.525 28.9 316.818 28.18 316.818 27.26C316.818 26.4067 316.572 25.78 316.078 25.38C315.585 24.98 314.892 24.6867 313.998 24.5L312.758 24.24C311.425 23.9733 310.458 23.5267 309.858 22.9C309.258 22.2733 308.958 21.4733 308.958 20.5C308.958 19.8867 309.065 19.3533 309.278 18.9C309.492 18.4333 309.792 18.0467 310.178 17.74C310.578 17.4333 311.052 17.2 311.598 17.04C312.158 16.88 312.772 16.8 313.438 16.8C314.478 16.8 315.358 16.9867 316.078 17.36C316.798 17.7333 317.392 18.26 317.858 18.94L316.958 19.6C316.572 19.04 316.085 18.6133 315.498 18.32C314.925 18.0133 314.218 17.86 313.378 17.86C312.378 17.86 311.585 18.08 310.998 18.52C310.425 18.9467 310.138 19.5933 310.138 20.46C310.138 21.2867 310.398 21.8933 310.918 22.28C311.438 22.6667 312.132 22.9467 312.998 23.12L314.238 23.38C315.625 23.6867 316.598 24.16 317.158 24.8C317.718 25.44 317.998 26.24 317.998 27.2C317.998 28.48 317.592 29.4733 316.778 30.18C315.965 30.8867 314.845 31.24 313.418 31.24ZM325.112 18.1V31H323.912V18.1H319.232V17.04H329.792V18.1H325.112ZM336.686 29.64L344.066 25.3V25.18L336.686 20.84V19.64L345.166 24.68V25.8L336.686 30.84V29.64Z" fill="black"/>
<rect x="34" y="62" width="281" height="230" fill="white" stroke="#E1E3E6" stroke-width="2"/>
<path d="M166.228 113.96C167.174 113.96 167.881 113.747 168.348 113.32C168.828 112.88 169.068 112.32 169.068 111.64V111.5C169.068 110.767 168.834 110.22 168.368 109.86C167.914 109.487 167.314 109.3 166.568 109.3C165.848 109.3 165.261 109.46 164.808 109.78C164.354 110.087 163.981 110.507 163.688 111.04L162.448 110.08C162.621 109.8 162.828 109.527 163.068 109.26C163.321 108.98 163.614 108.733 163.948 108.52C164.281 108.307 164.668 108.133 165.108 108C165.548 107.867 166.048 107.8 166.608 107.8C167.194 107.8 167.748 107.88 168.268 108.04C168.788 108.187 169.234 108.413 169.608 108.72C169.994 109.013 170.294 109.38 170.508 109.82C170.734 110.26 170.848 110.76 170.848 111.32C170.848 111.773 170.774 112.18 170.628 112.54C170.494 112.9 170.308 113.213 170.068 113.48C169.828 113.747 169.541 113.973 169.208 114.16C168.888 114.347 168.541 114.487 168.168 114.58V114.66C168.541 114.74 168.901 114.873 169.248 115.06C169.608 115.233 169.921 115.467 170.188 115.76C170.468 116.04 170.688 116.387 170.848 116.8C171.021 117.2 171.108 117.66 171.108 118.18C171.108 118.78 170.994 119.333 170.768 119.84C170.541 120.333 170.221 120.76 169.808 121.12C169.394 121.467 168.894 121.74 168.308 121.94C167.721 122.14 167.074 122.24 166.368 122.24C165.768 122.24 165.234 122.173 164.768 122.04C164.301 121.907 163.888 121.727 163.528 121.5C163.168 121.273 162.848 121.02 162.568 120.74C162.301 120.46 162.061 120.167 161.848 119.86L163.108 118.9C163.281 119.18 163.468 119.433 163.668 119.66C163.881 119.887 164.114 120.08 164.368 120.24C164.621 120.4 164.908 120.527 165.228 120.62C165.548 120.7 165.921 120.74 166.348 120.74C167.334 120.74 168.081 120.52 168.588 120.08C169.094 119.627 169.348 118.987 169.348 118.16V118C169.348 117.173 169.094 116.54 168.588 116.1C168.081 115.647 167.334 115.42 166.348 115.42H164.708V113.96H166.228ZM179 122.24C177.333 122.24 176.113 121.607 175.34 120.34C174.58 119.073 174.2 117.3 174.2 115.02C174.2 112.74 174.58 110.967 175.34 109.7C176.113 108.433 177.333 107.8 179 107.8C180.667 107.8 181.88 108.433 182.64 109.7C183.413 110.967 183.8 112.74 183.8 115.02C183.8 117.3 183.413 119.073 182.64 120.34C181.88 121.607 180.667 122.24 179 122.24ZM179 120.78C179.547 120.78 180.013 120.667 180.4 120.44C180.787 120.213 181.1 119.893 181.34 119.48C181.58 119.067 181.753 118.58 181.86 118.02C181.98 117.46 182.04 116.84 182.04 116.16V113.88C182.04 113.2 181.98 112.58 181.86 112.02C181.753 111.46 181.58 110.973 181.34 110.56C181.1 110.147 180.787 109.827 180.4 109.6C180.013 109.373 179.547 109.26 179 109.26C178.453 109.26 177.987 109.373 177.6 109.6C177.213 109.827 176.9 110.147 176.66 110.56C176.42 110.973 176.24 111.46 176.12 112.02C176.013 112.58 175.96 113.2 175.96 113.88V116.16C175.96 116.84 176.013 117.46 176.12 118.02C176.24 118.58 176.42 119.067 176.66 119.48C176.9 119.893 177.213 120.213 177.6 120.44C177.987 120.667 178.453 120.78 179 120.78Z" fill="black"/>
<path d="M208.764 122V120.52H212.664V109.28H212.524L209.004 112.56L208.024 111.5L211.724 108.04H214.344V120.52H217.944V122H208.764Z" fill="black"/>
<path d="M256.664 122H247.504V120.28L252.064 116.08C252.717 115.48 253.264 114.847 253.704 114.18C254.144 113.5 254.364 112.82 254.364 112.14V111.9C254.364 111.127 254.151 110.5 253.724 110.02C253.297 109.54 252.651 109.3 251.784 109.3C251.357 109.3 250.984 109.36 250.664 109.48C250.344 109.6 250.064 109.767 249.824 109.98C249.597 110.193 249.404 110.447 249.244 110.74C249.097 111.02 248.977 111.327 248.884 111.66L247.384 111.08C247.517 110.667 247.697 110.267 247.924 109.88C248.164 109.48 248.457 109.127 248.804 108.82C249.164 108.513 249.591 108.267 250.084 108.08C250.591 107.893 251.184 107.8 251.864 107.8C252.544 107.8 253.151 107.9 253.684 108.1C254.217 108.3 254.664 108.58 255.024 108.94C255.384 109.3 255.657 109.727 255.844 110.22C256.044 110.713 256.144 111.26 256.144 111.86C256.144 112.407 256.064 112.913 255.904 113.38C255.757 113.847 255.551 114.293 255.284 114.72C255.017 115.133 254.691 115.54 254.304 115.94C253.931 116.34 253.524 116.74 253.084 117.14L249.324 120.52H256.664V122Z" fill="black"/>
<path d="M292.224 113.96C293.171 113.96 293.877 113.747 294.344 113.32C294.824 112.88 295.064 112.32 295.064 111.64V111.5C295.064 110.767 294.831 110.22 294.364 109.86C293.911 109.487 293.311 109.3 292.564 109.3C291.844 109.3 291.257 109.46 290.804 109.78C290.351 110.087 289.977 110.507 289.684 111.04L288.444 110.08C288.617 109.8 288.824 109.527 289.064 109.26C289.317 108.98 289.611 108.733 289.944 108.52C290.277 108.307 290.664 108.133 291.104 108C291.544 107.867 292.044 107.8 292.604 107.8C293.191 107.8 293.744 107.88 294.264 108.04C294.784 108.187 295.231 108.413 295.604 108.72C295.991 109.013 296.291 109.38 296.504 109.82C296.731 110.26 296.844 110.76 296.844 111.32C296.844 111.773 296.771 112.18 296.624 112.54C296.491 112.9 296.304 113.213 296.064 113.48C295.824 113.747 295.537 113.973 295.204 114.16C294.884 114.347 294.537 114.487 294.164 114.58V114.66C294.537 114.74 294.897 114.873 295.244 115.06C295.604 115.233 295.917 115.467 296.184 115.76C296.464 116.04 296.684 116.387 296.844 116.8C297.017 117.2 297.104 117.66 297.104 118.18C297.104 118.78 296.991 119.333 296.764 119.84C296.537 120.333 296.217 120.76 295.804 121.12C295.391 121.467 294.891 121.74 294.304 121.94C293.717 122.14 293.071 122.24 292.364 122.24C291.764 122.24 291.231 122.173 290.764 122.04C290.297 121.907 289.884 121.727 289.524 121.5C289.164 121.273 288.844 121.02 288.564 120.74C288.297 120.46 288.057 120.167 287.844 119.86L289.104 118.9C289.277 119.18 289.464 119.433 289.664 119.66C289.877 119.887 290.111 120.08 290.364 120.24C290.617 120.4 290.904 120.527 291.224 120.62C291.544 120.7 291.917 120.74 292.344 120.74C293.331 120.74 294.077 120.52 294.584 120.08C295.091 119.627 295.344 118.987 295.344 118.16V118C295.344 117.173 295.091 116.54 294.584 116.1C294.077 115.647 293.331 115.42 292.344 115.42H290.704V113.96H292.224Z" fill="black"/>
<rect x="33" y="61" width="283" height="36" fill="#C4C4C4"/>
<rect x="33.5" y="61.5" width="39.3966" height="231" stroke="#E1E3E6"/>
<rect x="33.5" y="61.5" width="39.3966" height="231" stroke="#E1E3E6"/>
<rect x="73.8965" y="61.5" width="39.3966" height="231" stroke="#E1E3E6"/>
<rect x="114.293" y="61.5" width="39.3966" height="231" stroke="#E1E3E6"/>
<rect x="275.879" y="61.5" width="39.3966" height="231" stroke="#E1E3E6"/>
<rect x="154.69" y="61.5" width="39.3966" height="231" stroke="#E1E3E6"/>
<rect x="195.086" y="61.5" width="39.3966" height="231" stroke="#E1E3E6"/>
<rect x="235.483" y="61.5" width="39.3966" height="231" stroke="#E1E3E6"/>
<rect x="33.5" y="135.417" width="38.875" height="281.776" transform="rotate(-90 33.5 135.417)" stroke="#E1E3E6"/>
<rect x="33.5" y="292.5" width="38.875" height="281.776" transform="rotate(-90 33.5 292.5)" stroke="#E1E3E6"/>
<rect x="34.7241" y="253.833" width="38.875" height="281.776" transform="rotate(-90 34.7241 253.833)" stroke="#E1E3E6"/>
<rect x="33.5" y="213.958" width="38.875" height="281.776" transform="rotate(-90 33.5 213.958)" stroke="#E1E3E6"/>
<rect x="34.7241" y="175.292" width="38.875" height="281.776" transform="rotate(-90 34.7241 175.292)" stroke="#E1E3E6"/>
<path d="M45.1921 87.24C44.0588 87.24 43.0921 87.0267 42.2921 86.6C41.4921 86.16 40.8121 85.56 40.2521 84.8L41.4921 83.76C41.9854 84.4133 42.5321 84.9133 43.1321 85.26C43.7321 85.5933 44.4388 85.76 45.2521 85.76C46.2521 85.76 47.0121 85.52 47.5321 85.04C48.0654 84.56 48.3321 83.92 48.3321 83.12C48.3321 82.4533 48.1321 81.94 47.7321 81.58C47.3321 81.22 46.6721 80.9333 45.7521 80.72L44.6121 80.46C43.3321 80.1667 42.3521 79.7267 41.6721 79.14C41.0054 78.54 40.6721 77.7 40.6721 76.62C40.6721 76.0067 40.7854 75.46 41.0121 74.98C41.2388 74.5 41.5521 74.1 41.9521 73.78C42.3654 73.46 42.8521 73.22 43.4121 73.06C43.9854 72.8867 44.6121 72.8 45.2921 72.8C46.3454 72.8 47.2454 72.9933 47.9921 73.38C48.7521 73.7667 49.3921 74.3333 49.9121 75.08L48.6521 76C48.2654 75.4667 47.7988 75.0467 47.2521 74.74C46.7054 74.4333 46.0254 74.28 45.2121 74.28C44.3188 74.28 43.6121 74.4733 43.0921 74.86C42.5854 75.2333 42.3321 75.8 42.3321 76.56C42.3321 77.2267 42.5454 77.7333 42.9721 78.08C43.4121 78.4133 44.0721 78.68 44.9521 78.88L46.0921 79.14C47.4654 79.4467 48.4588 79.9133 49.0721 80.54C49.6854 81.1667 49.9921 82 49.9921 83.04C49.9921 83.68 49.8788 84.26 49.6521 84.78C49.4388 85.3 49.1254 85.74 48.7121 86.1C48.2988 86.46 47.7921 86.74 47.1921 86.94C46.6054 87.14 45.9388 87.24 45.1921 87.24ZM54.4732 73.04V81.68C54.4732 83.0133 54.7199 84.0267 55.2132 84.72C55.7065 85.4 56.5732 85.74 57.8132 85.74C59.0532 85.74 59.9199 85.4 60.4132 84.72C60.9065 84.0267 61.1532 83.0133 61.1532 81.68V73.04H62.8332V81.28C62.8332 82.2933 62.7399 83.1733 62.5532 83.92C62.3799 84.6667 62.0932 85.2867 61.6932 85.78C61.2932 86.2733 60.7665 86.64 60.1132 86.88C59.4732 87.12 58.6865 87.24 57.7532 87.24C56.8199 87.24 56.0332 87.12 55.3932 86.88C54.7665 86.64 54.2599 86.2733 53.8732 85.78C53.4865 85.2867 53.2065 84.6667 53.0332 83.92C52.8732 83.1733 52.7932 82.2933 52.7932 81.28V73.04H54.4732Z" fill="white"/>
<path d="M289.063 87.24C287.93 87.24 286.963 87.0267 286.163 86.6C285.363 86.16 284.683 85.56 284.123 84.8L285.363 83.76C285.857 84.4133 286.403 84.9133 287.003 85.26C287.603 85.5933 288.31 85.76 289.123 85.76C290.123 85.76 290.883 85.52 291.403 85.04C291.937 84.56 292.203 83.92 292.203 83.12C292.203 82.4533 292.003 81.94 291.603 81.58C291.203 81.22 290.543 80.9333 289.623 80.72L288.483 80.46C287.203 80.1667 286.223 79.7267 285.543 79.14C284.877 78.54 284.543 77.7 284.543 76.62C284.543 76.0067 284.657 75.46 284.883 74.98C285.11 74.5 285.423 74.1 285.823 73.78C286.237 73.46 286.723 73.22 287.283 73.06C287.857 72.8867 288.483 72.8 289.163 72.8C290.217 72.8 291.117 72.9933 291.863 73.38C292.623 73.7667 293.263 74.3333 293.783 75.08L292.523 76C292.137 75.4667 291.67 75.0467 291.123 74.74C290.577 74.4333 289.897 74.28 289.083 74.28C288.19 74.28 287.483 74.4733 286.963 74.86C286.457 75.2333 286.203 75.8 286.203 76.56C286.203 77.2267 286.417 77.7333 286.843 78.08C287.283 78.4133 287.943 78.68 288.823 78.88L289.963 79.14C291.337 79.4467 292.33 79.9133 292.943 80.54C293.557 81.1667 293.863 82 293.863 83.04C293.863 83.68 293.75 84.26 293.523 84.78C293.31 85.3 292.997 85.74 292.583 86.1C292.17 86.46 291.663 86.74 291.063 86.94C290.477 87.14 289.81 87.24 289.063 87.24ZM305.504 87L304.104 82.88H298.464L297.064 87H295.364L300.244 73.04H302.384L307.264 87H305.504ZM301.324 74.6H301.224L298.864 81.4H303.684L301.324 74.6Z" fill="white"/>
<path d="M244.878 87V73.04H253.198V74.52H246.558V79.2H252.618V80.68H246.558V87H244.878ZM257.729 87H256.049V73.04H261.609C262.836 73.04 263.789 73.38 264.469 74.06C265.163 74.74 265.509 75.72 265.509 77C265.509 78.0267 265.269 78.8733 264.789 79.54C264.323 80.1933 263.629 80.6267 262.709 80.84L265.909 87H264.009L260.989 81H257.729V87ZM261.609 79.56C262.276 79.56 262.789 79.3867 263.149 79.04C263.523 78.6933 263.709 78.2 263.709 77.56V76.52C263.709 75.88 263.523 75.3867 263.149 75.04C262.789 74.6933 262.276 74.52 261.609 74.52H257.729V79.56H261.609Z" fill="white"/>
<path d="M208.767 74.52V87H207.087V74.52H202.647V73.04H213.207V74.52H208.767ZM224.252 80.68H217.192V87H215.512V73.04H217.192V79.2H224.252V73.04H225.932V87H224.252V80.68Z" fill="white"/>
<path d="M165.064 87L161.664 73.04H163.444L164.944 79.76L166.104 84.98H166.144L167.444 79.76L169.204 73.04H171.124L172.824 79.76L174.124 84.96H174.184L175.384 79.76L176.964 73.04H178.684L175.104 87H173.244L171.424 80.04L170.144 74.92H170.104L168.784 80.04L166.924 87H165.064ZM180.936 87V73.04H189.456V74.52H182.616V79.2H189.056V80.68H182.616V85.52H189.456V87H180.936Z" fill="white"/>
<path d="M127.56 74.52V87H125.88V74.52H121.44V73.04H132V74.52H127.56ZM135.885 73.04V81.68C135.885 83.0133 136.132 84.0267 136.625 84.72C137.119 85.4 137.985 85.74 139.225 85.74C140.465 85.74 141.332 85.4 141.825 84.72C142.319 84.0267 142.565 83.0133 142.565 81.68V73.04H144.245V81.28C144.245 82.2933 144.152 83.1733 143.965 83.92C143.792 84.6667 143.505 85.2867 143.105 85.78C142.705 86.2733 142.179 86.64 141.525 86.88C140.885 87.12 140.099 87.24 139.165 87.24C138.232 87.24 137.445 87.12 136.805 86.88C136.179 86.64 135.672 86.2733 135.285 85.78C134.899 85.2867 134.619 84.6667 134.445 83.92C134.285 83.1733 134.205 82.2933 134.205 81.28V73.04H135.885Z" fill="white"/>
<path d="M91.0447 75.24H90.9447L89.7647 77.58L86.4247 83.66L83.0847 77.58L81.9047 75.24H81.8047V87H80.1647V73.04H82.4047L86.4047 80.56H86.5047L90.5247 73.04H92.6847V87H91.0447V75.24ZM101.615 87.24C100.708 87.24 99.8885 87.0867 99.1552 86.78C98.4352 86.46 97.8152 86 97.2952 85.4C96.7885 84.7867 96.3952 84.0333 96.1152 83.14C95.8352 82.2333 95.6952 81.1933 95.6952 80.02C95.6952 78.8467 95.8352 77.8133 96.1152 76.92C96.3952 76.0267 96.7885 75.2733 97.2952 74.66C97.8152 74.0467 98.4352 73.5867 99.1552 73.28C99.8885 72.96 100.708 72.8 101.615 72.8C102.508 72.8 103.322 72.96 104.055 73.28C104.788 73.5867 105.408 74.0467 105.915 74.66C106.435 75.2733 106.835 76.0267 107.115 76.92C107.395 77.8133 107.535 78.8467 107.535 80.02C107.535 81.1933 107.395 82.2333 107.115 83.14C106.835 84.0333 106.435 84.7867 105.915 85.4C105.408 86 104.788 86.46 104.055 86.78C103.322 87.0867 102.508 87.24 101.615 87.24ZM101.615 85.74C102.215 85.74 102.768 85.6333 103.275 85.42C103.782 85.2067 104.215 84.9 104.575 84.5C104.948 84.1 105.235 83.62 105.435 83.06C105.635 82.5 105.735 81.8733 105.735 81.18V78.86C105.735 78.1667 105.635 77.54 105.435 76.98C105.235 76.42 104.948 75.94 104.575 75.54C104.215 75.14 103.782 74.8333 103.275 74.62C102.768 74.4067 102.215 74.3 101.615 74.3C101.015 74.3 100.462 74.4067 99.9552 74.62C99.4485 74.8333 99.0085 75.14 98.6352 75.54C98.2752 75.94 97.9952 76.42 97.7952 76.98C97.5952 77.54 97.4952 78.1667 97.4952 78.86V81.18C97.4952 81.8733 97.5952 82.5 97.7952 83.06C97.9952 83.62 98.2752 84.1 98.6352 84.5C99.0085 84.9 99.4485 85.2067 99.9552 85.42C100.462 85.6333 101.015 85.74 101.615 85.74Z" fill="white"/>
<path d="M51.6678 119H42.5078V117.28L47.0678 113.08C47.7211 112.48 48.2678 111.847 48.7078 111.18C49.1478 110.5 49.3678 109.82 49.3678 109.14V108.9C49.3678 108.127 49.1545 107.5 48.7278 107.02C48.3011 106.54 47.6545 106.3 46.7878 106.3C46.3611 106.3 45.9878 106.36 45.6678 106.48C45.3478 106.6 45.0678 106.767 44.8278 106.98C44.6011 107.193 44.4078 107.447 44.2478 107.74C44.1011 108.02 43.9811 108.327 43.8878 108.66L42.3878 108.08C42.5211 107.667 42.7011 107.267 42.9278 106.88C43.1678 106.48 43.4611 106.127 43.8078 105.82C44.1678 105.513 44.5945 105.267 45.0878 105.08C45.5945 104.893 46.1878 104.8 46.8678 104.8C47.5478 104.8 48.1545 104.9 48.6878 105.1C49.2211 105.3 49.6678 105.58 50.0278 105.94C50.3878 106.3 50.6611 106.727 50.8478 107.22C51.0478 107.713 51.1478 108.26 51.1478 108.86C51.1478 109.407 51.0678 109.913 50.9078 110.38C50.7611 110.847 50.5545 111.293 50.2878 111.72C50.0211 112.133 49.6945 112.54 49.3078 112.94C48.9345 113.34 48.5278 113.74 48.0878 114.14L44.3278 117.52H51.6678V119ZM56.5 119L61.84 106.48H55.88V109.08H54.38V105.04H63.54V106.52L58.3 119H56.5Z" fill="black"/>
<circle cx="51.5" cy="125.5" r="1.5" fill="black"/>
<path d="M294.668 240H285.508V238.28L290.068 234.08C290.721 233.48 291.268 232.847 291.708 232.18C292.148 231.5 292.368 230.82 292.368 230.14V229.9C292.368 229.127 292.154 228.5 291.728 228.02C291.301 227.54 290.654 227.3 289.788 227.3C289.361 227.3 288.988 227.36 288.668 227.48C288.348 227.6 288.068 227.767 287.828 227.98C287.601 228.193 287.408 228.447 287.248 228.74C287.101 229.02 286.981 229.327 286.888 229.66L285.388 229.08C285.521 228.667 285.701 228.267 285.928 227.88C286.168 227.48 286.461 227.127 286.808 226.82C287.168 226.513 287.594 226.267 288.088 226.08C288.594 225.893 289.188 225.8 289.868 225.8C290.548 225.8 291.154 225.9 291.688 226.1C292.221 226.3 292.668 226.58 293.028 226.94C293.388 227.3 293.661 227.727 293.848 228.22C294.048 228.713 294.148 229.26 294.148 229.86C294.148 230.407 294.068 230.913 293.908 231.38C293.761 231.847 293.554 232.293 293.288 232.72C293.021 233.133 292.694 233.54 292.308 233.94C291.934 234.34 291.528 234.74 291.088 235.14L287.328 238.52H294.668V240ZM303.5 240V237.26H296.76V235.78L302.6 226.04H305.1V235.86H307.12V237.26H305.1V240H303.5ZM298.34 235.86H303.5V227.34H303.4L298.34 235.86Z" fill="black"/>
<circle cx="294.5" cy="246.5" r="1.5" fill="black"/>
<path d="M259.664 153.16C259.664 154.2 259.511 155.18 259.204 156.1C258.897 157.007 258.497 157.84 258.004 158.6C257.524 159.347 256.991 160.013 256.404 160.6C255.817 161.173 255.244 161.64 254.684 162H252.524C253.271 161.453 253.937 160.92 254.524 160.4C255.111 159.88 255.624 159.34 256.064 158.78C256.504 158.207 256.877 157.6 257.184 156.96C257.491 156.307 257.737 155.573 257.924 154.76L257.824 154.72C257.491 155.293 257.057 155.773 256.524 156.16C256.004 156.533 255.317 156.72 254.464 156.72C253.864 156.72 253.311 156.62 252.804 156.42C252.297 156.22 251.864 155.933 251.504 155.56C251.144 155.187 250.857 154.74 250.644 154.22C250.444 153.687 250.344 153.087 250.344 152.42C250.344 151.74 250.451 151.12 250.664 150.56C250.891 149.987 251.204 149.5 251.604 149.1C252.017 148.687 252.504 148.367 253.064 148.14C253.637 147.913 254.277 147.8 254.984 147.8C255.704 147.8 256.351 147.927 256.924 148.18C257.511 148.42 258.004 148.773 258.404 149.24C258.817 149.693 259.131 150.253 259.344 150.92C259.557 151.587 259.664 152.333 259.664 153.16ZM255.004 155.3C255.924 155.3 256.637 155.047 257.144 154.54C257.664 154.033 257.924 153.307 257.924 152.36V152.2C257.924 151.253 257.664 150.527 257.144 150.02C256.637 149.513 255.924 149.26 255.004 149.26C254.084 149.26 253.364 149.513 252.844 150.02C252.337 150.527 252.084 151.253 252.084 152.2V152.36C252.084 153.307 252.337 154.033 252.844 154.54C253.364 155.047 254.084 155.3 255.004 155.3Z" fill="black"/>
<circle cx="253.5" cy="168.5" r="1.5" fill="black"/>
<path d="M282.768 162V160.52H286.668V149.28H286.528L283.008 152.56L282.028 151.5L285.728 148.04H288.348V160.52H291.948V162H282.768ZM299 162.24C297.333 162.24 296.113 161.607 295.34 160.34C294.58 159.073 294.2 157.3 294.2 155.02C294.2 152.74 294.58 150.967 295.34 149.7C296.113 148.433 297.333 147.8 299 147.8C300.667 147.8 301.88 148.433 302.64 149.7C303.413 150.967 303.8 152.74 303.8 155.02C303.8 157.3 303.413 159.073 302.64 160.34C301.88 161.607 300.667 162.24 299 162.24ZM299 160.78C299.547 160.78 300.013 160.667 300.4 160.44C300.787 160.213 301.1 159.893 301.34 159.48C301.58 159.067 301.753 158.58 301.86 158.02C301.98 157.46 302.04 156.84 302.04 156.16V153.88C302.04 153.2 301.98 152.58 301.86 152.02C301.753 151.46 301.58 150.973 301.34 150.56C301.1 150.147 300.787 149.827 300.4 149.6C300.013 149.373 299.547 149.26 299 149.26C298.453 149.26 297.987 149.373 297.6 149.6C297.213 149.827 296.9 150.147 296.66 150.56C296.42 150.973 296.24 151.46 296.12 152.02C296.013 152.58 295.96 153.2 295.96 153.88V156.16C295.96 156.84 296.013 157.46 296.12 158.02C296.24 158.58 296.42 159.067 296.66 159.48C296.9 159.893 297.213 160.213 297.6 160.44C297.987 160.667 298.453 160.78 299 160.78Z" fill="black"/>
<circle cx="291.5" cy="168.5" r="1.5" fill="black"/>
<path d="M89.6678 122H80.5078V120.28L85.0678 116.08C85.7211 115.48 86.2678 114.847 86.7078 114.18C87.1478 113.5 87.3678 112.82 87.3678 112.14V111.9C87.3678 111.127 87.1545 110.5 86.7278 110.02C86.3011 109.54 85.6545 109.3 84.7878 109.3C84.3611 109.3 83.9878 109.36 83.6678 109.48C83.3478 109.6 83.0678 109.767 82.8278 109.98C82.6011 110.193 82.4078 110.447 82.2478 110.74C82.1011 111.02 81.9811 111.327 81.8878 111.66L80.3878 111.08C80.5211 110.667 80.7011 110.267 80.9278 109.88C81.1678 109.48 81.4611 109.127 81.8078 108.82C82.1678 108.513 82.5945 108.267 83.0878 108.08C83.5945 107.893 84.1878 107.8 84.8678 107.8C85.5478 107.8 86.1545 107.9 86.6878 108.1C87.2211 108.3 87.6678 108.58 88.0278 108.94C88.3878 109.3 88.6611 109.727 88.8478 110.22C89.0478 110.713 89.1478 111.26 89.1478 111.86C89.1478 112.407 89.0678 112.913 88.9078 113.38C88.7611 113.847 88.5545 114.293 88.2878 114.72C88.0211 115.133 87.6945 115.54 87.3078 115.94C86.9345 116.34 86.5278 116.74 86.0878 117.14L82.3278 120.52H89.6678V122ZM97 122.24C96.2 122.24 95.5 122.14 94.9 121.94C94.3 121.727 93.7933 121.44 93.38 121.08C92.98 120.72 92.6733 120.293 92.46 119.8C92.26 119.307 92.16 118.773 92.16 118.2C92.16 117.24 92.42 116.48 92.94 115.92C93.46 115.36 94.14 114.967 94.98 114.74V114.58C94.2467 114.327 93.66 113.92 93.22 113.36C92.7933 112.787 92.58 112.1 92.58 111.3C92.58 110.233 92.9667 109.387 93.74 108.76C94.5133 108.12 95.6 107.8 97 107.8C98.4 107.8 99.4867 108.12 100.26 108.76C101.033 109.387 101.42 110.233 101.42 111.3C101.42 112.1 101.2 112.787 100.76 113.36C100.333 113.92 99.7533 114.327 99.02 114.58V114.74C99.86 114.967 100.54 115.36 101.06 115.92C101.58 116.48 101.84 117.24 101.84 118.2C101.84 118.773 101.733 119.307 101.52 119.8C101.32 120.293 101.013 120.72 100.6 121.08C100.2 121.44 99.7 121.727 99.1 121.94C98.5 122.14 97.8 122.24 97 122.24ZM97 120.78C97.9733 120.78 98.7267 120.567 99.26 120.14C99.7933 119.7 100.06 119.08 100.06 118.28V117.86C100.06 117.06 99.7933 116.447 99.26 116.02C98.7267 115.58 97.9733 115.36 97 115.36C96.0267 115.36 95.2733 115.58 94.74 116.02C94.2067 116.447 93.94 117.06 93.94 117.86V118.28C93.94 119.08 94.2067 119.7 94.74 120.14C95.2733 120.567 96.0267 120.78 97 120.78ZM97 113.96C97.88 113.96 98.5467 113.773 99 113.4C99.4533 113.027 99.68 112.48 99.68 111.76V111.46C99.68 110.74 99.4533 110.193 99 109.82C98.5467 109.447 97.88 109.26 97 109.26C96.12 109.26 95.4533 109.447 95 109.82C94.5467 110.193 94.32 110.74 94.32 111.46V111.76C94.32 112.48 94.5467 113.027 95 113.4C95.4533 113.773 96.12 113.96 97 113.96Z" fill="black"/>
<path d="M131.668 122H122.508V120.28L127.068 116.08C127.721 115.48 128.268 114.847 128.708 114.18C129.148 113.5 129.368 112.82 129.368 112.14V111.9C129.368 111.127 129.154 110.5 128.728 110.02C128.301 109.54 127.654 109.3 126.788 109.3C126.361 109.3 125.988 109.36 125.668 109.48C125.348 109.6 125.068 109.767 124.828 109.98C124.601 110.193 124.408 110.447 124.248 110.74C124.101 111.02 123.981 111.327 123.888 111.66L122.388 111.08C122.521 110.667 122.701 110.267 122.928 109.88C123.168 109.48 123.461 109.127 123.808 108.82C124.168 108.513 124.594 108.267 125.088 108.08C125.594 107.893 126.188 107.8 126.868 107.8C127.548 107.8 128.154 107.9 128.688 108.1C129.221 108.3 129.668 108.58 130.028 108.94C130.388 109.3 130.661 109.727 130.848 110.22C131.048 110.713 131.148 111.26 131.148 111.86C131.148 112.407 131.068 112.913 130.908 113.38C130.761 113.847 130.554 114.293 130.288 114.72C130.021 115.133 129.694 115.54 129.308 115.94C128.934 116.34 128.528 116.74 128.088 117.14L124.328 120.52H131.668V122ZM143.66 113.16C143.66 114.2 143.507 115.18 143.2 116.1C142.893 117.007 142.493 117.84 142 118.6C141.52 119.347 140.987 120.013 140.4 120.6C139.813 121.173 139.24 121.64 138.68 122H136.52C137.267 121.453 137.933 120.92 138.52 120.4C139.107 119.88 139.62 119.34 140.06 118.78C140.5 118.207 140.873 117.6 141.18 116.96C141.487 116.307 141.733 115.573 141.92 114.76L141.82 114.72C141.487 115.293 141.053 115.773 140.52 116.16C140 116.533 139.313 116.72 138.46 116.72C137.86 116.72 137.307 116.62 136.8 116.42C136.293 116.22 135.86 115.933 135.5 115.56C135.14 115.187 134.853 114.74 134.64 114.22C134.44 113.687 134.34 113.087 134.34 112.42C134.34 111.74 134.447 111.12 134.66 110.56C134.887 109.987 135.2 109.5 135.6 109.1C136.013 108.687 136.5 108.367 137.06 108.14C137.633 107.913 138.273 107.8 138.98 107.8C139.7 107.8 140.347 107.927 140.92 108.18C141.507 108.42 142 108.773 142.4 109.24C142.813 109.693 143.127 110.253 143.34 110.92C143.553 111.587 143.66 112.333 143.66 113.16ZM139 115.3C139.92 115.3 140.633 115.047 141.14 114.54C141.66 114.033 141.92 113.307 141.92 112.36V112.2C141.92 111.253 141.66 110.527 141.14 110.02C140.633 109.513 139.92 109.26 139 109.26C138.08 109.26 137.36 109.513 136.84 110.02C136.333 110.527 136.08 111.253 136.08 112.2V112.36C136.08 113.307 136.333 114.033 136.84 114.54C137.36 115.047 138.08 115.3 139 115.3Z" fill="black"/>
<path d="M51.5039 165V162.26H44.7639V160.78L50.6039 151.04H53.1039V160.86H55.1239V162.26H53.1039V165H51.5039ZM46.3439 160.86H51.5039V152.34H51.4039L46.3439 160.86Z" fill="black"/>
<path d="M94.9639 152.52H88.8439L88.4439 157.84H88.5839C88.9172 157.373 89.2906 157 89.7039 156.72C90.1306 156.44 90.7106 156.3 91.4439 156.3C92.0439 156.3 92.5972 156.4 93.1039 156.6C93.6106 156.8 94.0506 157.087 94.4239 157.46C94.7972 157.82 95.0839 158.267 95.2839 158.8C95.4972 159.333 95.6039 159.94 95.6039 160.62C95.6039 161.3 95.4972 161.927 95.2839 162.5C95.0706 163.06 94.7572 163.547 94.3439 163.96C93.9439 164.36 93.4506 164.673 92.8639 164.9C92.2906 165.127 91.6372 165.24 90.9039 165.24C90.3172 165.24 89.7972 165.173 89.3439 165.04C88.9039 164.907 88.5106 164.727 88.1639 164.5C87.8172 164.273 87.5106 164.02 87.2439 163.74C86.9906 163.46 86.7572 163.167 86.5439 162.86L87.8039 161.9C87.9772 162.18 88.1572 162.433 88.3439 162.66C88.5439 162.887 88.7572 163.08 88.9839 163.24C89.2239 163.4 89.4972 163.527 89.8039 163.62C90.1106 163.7 90.4772 163.74 90.9039 163.74C91.8639 163.74 92.5906 163.487 93.0839 162.98C93.5772 162.473 93.8239 161.76 93.8239 160.84V160.64C93.8239 159.72 93.5772 159.007 93.0839 158.5C92.5906 157.993 91.8639 157.74 90.9039 157.74C90.2639 157.74 89.7572 157.86 89.3839 158.1C89.0239 158.327 88.6972 158.6 88.4039 158.92L86.9839 158.72L87.4839 151.04H94.9639V152.52Z" fill="black"/>
<path d="M131.024 165.24C130.304 165.24 129.651 165.12 129.064 164.88C128.491 164.627 127.997 164.273 127.584 163.82C127.184 163.353 126.877 162.787 126.664 162.12C126.451 161.453 126.344 160.707 126.344 159.88C126.344 158.84 126.497 157.867 126.804 156.96C127.111 156.04 127.504 155.207 127.984 154.46C128.477 153.7 129.017 153.033 129.604 152.46C130.191 151.873 130.764 151.4 131.324 151.04H133.484C132.737 151.587 132.071 152.12 131.484 152.64C130.897 153.16 130.384 153.707 129.944 154.28C129.504 154.84 129.131 155.447 128.824 156.1C128.517 156.74 128.271 157.467 128.084 158.28L128.184 158.32C128.517 157.747 128.944 157.273 129.464 156.9C129.997 156.513 130.691 156.32 131.544 156.32C132.144 156.32 132.697 156.42 133.204 156.62C133.711 156.82 134.144 157.107 134.504 157.48C134.864 157.853 135.144 158.307 135.344 158.84C135.557 159.373 135.664 159.967 135.664 160.62C135.664 161.3 135.551 161.927 135.324 162.5C135.111 163.06 134.797 163.547 134.384 163.96C133.984 164.36 133.497 164.673 132.924 164.9C132.351 165.127 131.717 165.24 131.024 165.24ZM131.004 163.78C131.924 163.78 132.637 163.527 133.144 163.02C133.664 162.513 133.924 161.787 133.924 160.84V160.68C133.924 159.733 133.664 159.007 133.144 158.5C132.637 157.993 131.924 157.74 131.004 157.74C130.084 157.74 129.364 157.993 128.844 158.5C128.337 159.007 128.084 159.733 128.084 160.68V160.84C128.084 161.787 128.337 162.513 128.844 163.02C129.364 163.527 130.084 163.78 131.004 163.78Z" fill="black"/>
<path d="M169.504 165L174.844 152.48H168.884V155.08H167.384V151.04H176.544V152.52L171.304 165H169.504Z" fill="black"/>
<path d="M208.004 165.24C207.204 165.24 206.504 165.14 205.904 164.94C205.304 164.727 204.797 164.44 204.384 164.08C203.984 163.72 203.677 163.293 203.464 162.8C203.264 162.307 203.164 161.773 203.164 161.2C203.164 160.24 203.424 159.48 203.944 158.92C204.464 158.36 205.144 157.967 205.984 157.74V157.58C205.251 157.327 204.664 156.92 204.224 156.36C203.797 155.787 203.584 155.1 203.584 154.3C203.584 153.233 203.971 152.387 204.744 151.76C205.517 151.12 206.604 150.8 208.004 150.8C209.404 150.8 210.491 151.12 211.264 151.76C212.037 152.387 212.424 153.233 212.424 154.3C212.424 155.1 212.204 155.787 211.764 156.36C211.337 156.92 210.757 157.327 210.024 157.58V157.74C210.864 157.967 211.544 158.36 212.064 158.92C212.584 159.48 212.844 160.24 212.844 161.2C212.844 161.773 212.737 162.307 212.524 162.8C212.324 163.293 212.017 163.72 211.604 164.08C211.204 164.44 210.704 164.727 210.104 164.94C209.504 165.14 208.804 165.24 208.004 165.24ZM208.004 163.78C208.977 163.78 209.731 163.567 210.264 163.14C210.797 162.7 211.064 162.08 211.064 161.28V160.86C211.064 160.06 210.797 159.447 210.264 159.02C209.731 158.58 208.977 158.36 208.004 158.36C207.031 158.36 206.277 158.58 205.744 159.02C205.211 159.447 204.944 160.06 204.944 160.86V161.28C204.944 162.08 205.211 162.7 205.744 163.14C206.277 163.567 207.031 163.78 208.004 163.78ZM208.004 156.96C208.884 156.96 209.551 156.773 210.004 156.4C210.457 156.027 210.684 155.48 210.684 154.76V154.46C210.684 153.74 210.457 153.193 210.004 152.82C209.551 152.447 208.884 152.26 208.004 152.26C207.124 152.26 206.457 152.447 206.004 152.82C205.551 153.193 205.324 153.74 205.324 154.46V154.76C205.324 155.48 205.551 156.027 206.004 156.4C206.457 156.773 207.124 156.96 208.004 156.96Z" fill="black"/>
<path d="M43.7678 200V198.52H47.6678V187.28H47.5278L44.0078 190.56L43.0278 189.5L46.7278 186.04H49.3478V198.52H52.9478V200H43.7678ZM55.76 200V198.52H59.66V187.28H59.52L56 190.56L55.02 189.5L58.72 186.04H61.34V198.52H64.94V200H55.76Z" fill="black"/>
<path d="M81.7678 200V198.52H85.6678V187.28H85.5278L82.0078 190.56L81.0278 189.5L84.7278 186.04H87.3478V198.52H90.9478V200H81.7678ZM102.66 200H93.5V198.28L98.06 194.08C98.7133 193.48 99.26 192.847 99.7 192.18C100.14 191.5 100.36 190.82 100.36 190.14V189.9C100.36 189.127 100.147 188.5 99.72 188.02C99.2933 187.54 98.6467 187.3 97.78 187.3C97.3533 187.3 96.98 187.36 96.66 187.48C96.34 187.6 96.06 187.767 95.82 187.98C95.5933 188.193 95.4 188.447 95.24 188.74C95.0933 189.02 94.9733 189.327 94.88 189.66L93.38 189.08C93.5133 188.667 93.6933 188.267 93.92 187.88C94.16 187.48 94.4533 187.127 94.8 186.82C95.16 186.513 95.5867 186.267 96.08 186.08C96.5867 185.893 97.18 185.8 97.86 185.8C98.54 185.8 99.1467 185.9 99.68 186.1C100.213 186.3 100.66 186.58 101.02 186.94C101.38 187.3 101.653 187.727 101.84 188.22C102.04 188.713 102.14 189.26 102.14 189.86C102.14 190.407 102.06 190.913 101.9 191.38C101.753 191.847 101.547 192.293 101.28 192.72C101.013 193.133 100.687 193.54 100.3 193.94C99.9267 194.34 99.52 194.74 99.08 195.14L95.32 198.52H102.66V200Z" fill="black"/>
<path d="M123.768 200V198.52H127.668V187.28H127.528L124.008 190.56L123.028 189.5L126.728 186.04H129.348V198.52H132.948V200H123.768ZM139.22 191.96C140.167 191.96 140.873 191.747 141.34 191.32C141.82 190.88 142.06 190.32 142.06 189.64V189.5C142.06 188.767 141.827 188.22 141.36 187.86C140.907 187.487 140.307 187.3 139.56 187.3C138.84 187.3 138.253 187.46 137.8 187.78C137.347 188.087 136.973 188.507 136.68 189.04L135.44 188.08C135.613 187.8 135.82 187.527 136.06 187.26C136.313 186.98 136.607 186.733 136.94 186.52C137.273 186.307 137.66 186.133 138.1 186C138.54 185.867 139.04 185.8 139.6 185.8C140.187 185.8 140.74 185.88 141.26 186.04C141.78 186.187 142.227 186.413 142.6 186.72C142.987 187.013 143.287 187.38 143.5 187.82C143.727 188.26 143.84 188.76 143.84 189.32C143.84 189.773 143.767 190.18 143.62 190.54C143.487 190.9 143.3 191.213 143.06 191.48C142.82 191.747 142.533 191.973 142.2 192.16C141.88 192.347 141.533 192.487 141.16 192.58V192.66C141.533 192.74 141.893 192.873 142.24 193.06C142.6 193.233 142.913 193.467 143.18 193.76C143.46 194.04 143.68 194.387 143.84 194.8C144.013 195.2 144.1 195.66 144.1 196.18C144.1 196.78 143.987 197.333 143.76 197.84C143.533 198.333 143.213 198.76 142.8 199.12C142.387 199.467 141.887 199.74 141.3 199.94C140.713 200.14 140.067 200.24 139.36 200.24C138.76 200.24 138.227 200.173 137.76 200.04C137.293 199.907 136.88 199.727 136.52 199.5C136.16 199.273 135.84 199.02 135.56 198.74C135.293 198.46 135.053 198.167 134.84 197.86L136.1 196.9C136.273 197.18 136.46 197.433 136.66 197.66C136.873 197.887 137.107 198.08 137.36 198.24C137.613 198.4 137.9 198.527 138.22 198.62C138.54 198.7 138.913 198.74 139.34 198.74C140.327 198.74 141.073 198.52 141.58 198.08C142.087 197.627 142.34 196.987 142.34 196.16V196C142.34 195.173 142.087 194.54 141.58 194.1C141.073 193.647 140.327 193.42 139.34 193.42H137.7V191.96H139.22Z" fill="black"/>
<path d="M161.768 200V198.52H165.668V187.28H165.528L162.008 190.56L161.028 189.5L164.728 186.04H167.348V198.52H170.948V200H161.768ZM179.5 200V197.26H172.76V195.78L178.6 186.04H181.1V195.86H183.12V197.26H181.1V200H179.5ZM174.34 195.86H179.5V187.34H179.4L174.34 195.86Z" fill="black"/>
<path d="M198.768 200V198.52H202.668V187.28H202.528L199.008 190.56L198.028 189.5L201.728 186.04H204.348V198.52H207.948V200H198.768ZM218.96 187.52H212.84L212.44 192.84H212.58C212.913 192.373 213.287 192 213.7 191.72C214.127 191.44 214.707 191.3 215.44 191.3C216.04 191.3 216.593 191.4 217.1 191.6C217.607 191.8 218.047 192.087 218.42 192.46C218.793 192.82 219.08 193.267 219.28 193.8C219.493 194.333 219.6 194.94 219.6 195.62C219.6 196.3 219.493 196.927 219.28 197.5C219.067 198.06 218.753 198.547 218.34 198.96C217.94 199.36 217.447 199.673 216.86 199.9C216.287 200.127 215.633 200.24 214.9 200.24C214.313 200.24 213.793 200.173 213.34 200.04C212.9 199.907 212.507 199.727 212.16 199.5C211.813 199.273 211.507 199.02 211.24 198.74C210.987 198.46 210.753 198.167 210.54 197.86L211.8 196.9C211.973 197.18 212.153 197.433 212.34 197.66C212.54 197.887 212.753 198.08 212.98 198.24C213.22 198.4 213.493 198.527 213.8 198.62C214.107 198.7 214.473 198.74 214.9 198.74C215.86 198.74 216.587 198.487 217.08 197.98C217.573 197.473 217.82 196.76 217.82 195.84V195.64C217.82 194.72 217.573 194.007 217.08 193.5C216.587 192.993 215.86 192.74 214.9 192.74C214.26 192.74 213.753 192.86 213.38 193.1C213.02 193.327 212.693 193.6 212.4 193.92L210.98 193.72L211.48 186.04H218.96V187.52Z" fill="black"/>
<path d="M242.768 200V198.52H246.668V187.28H246.528L243.008 190.56L242.028 189.5L245.728 186.04H248.348V198.52H251.948V200H242.768ZM259.02 200.24C258.3 200.24 257.647 200.12 257.06 199.88C256.487 199.627 255.993 199.273 255.58 198.82C255.18 198.353 254.873 197.787 254.66 197.12C254.447 196.453 254.34 195.707 254.34 194.88C254.34 193.84 254.493 192.867 254.8 191.96C255.107 191.04 255.5 190.207 255.98 189.46C256.473 188.7 257.013 188.033 257.6 187.46C258.187 186.873 258.76 186.4 259.32 186.04H261.48C260.733 186.587 260.067 187.12 259.48 187.64C258.893 188.16 258.38 188.707 257.94 189.28C257.5 189.84 257.127 190.447 256.82 191.1C256.513 191.74 256.267 192.467 256.08 193.28L256.18 193.32C256.513 192.747 256.94 192.273 257.46 191.9C257.993 191.513 258.687 191.32 259.54 191.32C260.14 191.32 260.693 191.42 261.2 191.62C261.707 191.82 262.14 192.107 262.5 192.48C262.86 192.853 263.14 193.307 263.34 193.84C263.553 194.373 263.66 194.967 263.66 195.62C263.66 196.3 263.547 196.927 263.32 197.5C263.107 198.06 262.793 198.547 262.38 198.96C261.98 199.36 261.493 199.673 260.92 199.9C260.347 200.127 259.713 200.24 259.02 200.24ZM259 198.78C259.92 198.78 260.633 198.527 261.14 198.02C261.66 197.513 261.92 196.787 261.92 195.84V195.68C261.92 194.733 261.66 194.007 261.14 193.5C260.633 192.993 259.92 192.74 259 192.74C258.08 192.74 257.36 192.993 256.84 193.5C256.333 194.007 256.08 194.733 256.08 195.68V195.84C256.08 196.787 256.333 197.513 256.84 198.02C257.36 198.527 258.08 198.78 259 198.78Z" fill="black"/>
<rect x="275" y="175" width="39" height="41" fill="#34455A"/>
<path d="M282.768 198.103V196.623H286.668V185.383H286.528L283.008 188.663L282.028 187.603L285.728 184.143H288.348V196.623H291.948V198.103H282.768ZM296.5 198.103L301.84 185.583H295.88V188.183H294.38V184.143H303.54V185.623L298.3 198.103H296.5Z" fill="white"/>
<path d="M43.7678 245V243.52H47.6678V232.28H47.5278L44.0078 235.56L43.0278 234.5L46.7278 231.04H49.3478V243.52H52.9478V245H43.7678ZM60 245.24C59.2 245.24 58.5 245.14 57.9 244.94C57.3 244.727 56.7933 244.44 56.38 244.08C55.98 243.72 55.6733 243.293 55.46 242.8C55.26 242.307 55.16 241.773 55.16 241.2C55.16 240.24 55.42 239.48 55.94 238.92C56.46 238.36 57.14 237.967 57.98 237.74V237.58C57.2467 237.327 56.66 236.92 56.22 236.36C55.7933 235.787 55.58 235.1 55.58 234.3C55.58 233.233 55.9667 232.387 56.74 231.76C57.5133 231.12 58.6 230.8 60 230.8C61.4 230.8 62.4867 231.12 63.26 231.76C64.0333 232.387 64.42 233.233 64.42 234.3C64.42 235.1 64.2 235.787 63.76 236.36C63.3333 236.92 62.7533 237.327 62.02 237.58V237.74C62.86 237.967 63.54 238.36 64.06 238.92C64.58 239.48 64.84 240.24 64.84 241.2C64.84 241.773 64.7333 242.307 64.52 242.8C64.32 243.293 64.0133 243.72 63.6 244.08C63.2 244.44 62.7 244.727 62.1 244.94C61.5 245.14 60.8 245.24 60 245.24ZM60 243.78C60.9733 243.78 61.7267 243.567 62.26 243.14C62.7933 242.7 63.06 242.08 63.06 241.28V240.86C63.06 240.06 62.7933 239.447 62.26 239.02C61.7267 238.58 60.9733 238.36 60 238.36C59.0267 238.36 58.2733 238.58 57.74 239.02C57.2067 239.447 56.94 240.06 56.94 240.86V241.28C56.94 242.08 57.2067 242.7 57.74 243.14C58.2733 243.567 59.0267 243.78 60 243.78ZM60 236.96C60.88 236.96 61.5467 236.773 62 236.4C62.4533 236.027 62.68 235.48 62.68 234.76V234.46C62.68 233.74 62.4533 233.193 62 232.82C61.5467 232.447 60.88 232.26 60 232.26C59.12 232.26 58.4533 232.447 58 232.82C57.5467 233.193 57.32 233.74 57.32 234.46V234.76C57.32 235.48 57.5467 236.027 58 236.4C58.4533 236.773 59.12 236.96 60 236.96Z" fill="black"/>
<path d="M81.7678 243V241.52H85.6678V230.28H85.5278L82.0078 233.56L81.0278 232.5L84.7278 229.04H87.3478V241.52H90.9478V243H81.7678ZM102.66 234.16C102.66 235.2 102.507 236.18 102.2 237.1C101.893 238.007 101.493 238.84 101 239.6C100.52 240.347 99.9867 241.013 99.4 241.6C98.8133 242.173 98.24 242.64 97.68 243H95.52C96.2667 242.453 96.9333 241.92 97.52 241.4C98.1067 240.88 98.62 240.34 99.06 239.78C99.5 239.207 99.8733 238.6 100.18 237.96C100.487 237.307 100.733 236.573 100.92 235.76L100.82 235.72C100.487 236.293 100.053 236.773 99.52 237.16C99 237.533 98.3133 237.72 97.46 237.72C96.86 237.72 96.3067 237.62 95.8 237.42C95.2933 237.22 94.86 236.933 94.5 236.56C94.14 236.187 93.8533 235.74 93.64 235.22C93.44 234.687 93.34 234.087 93.34 233.42C93.34 232.74 93.4467 232.12 93.66 231.56C93.8867 230.987 94.2 230.5 94.6 230.1C95.0133 229.687 95.5 229.367 96.06 229.14C96.6333 228.913 97.2733 228.8 97.98 228.8C98.7 228.8 99.3467 228.927 99.92 229.18C100.507 229.42 101 229.773 101.4 230.24C101.813 230.693 102.127 231.253 102.34 231.92C102.553 232.587 102.66 233.333 102.66 234.16ZM98 236.3C98.92 236.3 99.6333 236.047 100.14 235.54C100.66 235.033 100.92 234.307 100.92 233.36V233.2C100.92 232.253 100.66 231.527 100.14 231.02C99.6333 230.513 98.92 230.26 98 230.26C97.08 230.26 96.36 230.513 95.84 231.02C95.3333 231.527 95.08 232.253 95.08 233.2V233.36C95.08 234.307 95.3333 235.033 95.84 235.54C96.36 236.047 97.08 236.3 98 236.3Z" fill="black"/>
<path d="M129.668 243H120.508V241.28L125.068 237.08C125.721 236.48 126.268 235.847 126.708 235.18C127.148 234.5 127.368 233.82 127.368 233.14V232.9C127.368 232.127 127.154 231.5 126.728 231.02C126.301 230.54 125.654 230.3 124.788 230.3C124.361 230.3 123.988 230.36 123.668 230.48C123.348 230.6 123.068 230.767 122.828 230.98C122.601 231.193 122.408 231.447 122.248 231.74C122.101 232.02 121.981 232.327 121.888 232.66L120.388 232.08C120.521 231.667 120.701 231.267 120.928 230.88C121.168 230.48 121.461 230.127 121.808 229.82C122.168 229.513 122.594 229.267 123.088 229.08C123.594 228.893 124.188 228.8 124.868 228.8C125.548 228.8 126.154 228.9 126.688 229.1C127.221 229.3 127.668 229.58 128.028 229.94C128.388 230.3 128.661 230.727 128.848 231.22C129.048 231.713 129.148 232.26 129.148 232.86C129.148 233.407 129.068 233.913 128.908 234.38C128.761 234.847 128.554 235.293 128.288 235.72C128.021 236.133 127.694 236.54 127.308 236.94C126.934 237.34 126.528 237.74 126.088 238.14L122.328 241.52H129.668V243ZM137 243.24C135.333 243.24 134.113 242.607 133.34 241.34C132.58 240.073 132.2 238.3 132.2 236.02C132.2 233.74 132.58 231.967 133.34 230.7C134.113 229.433 135.333 228.8 137 228.8C138.667 228.8 139.88 229.433 140.64 230.7C141.413 231.967 141.8 233.74 141.8 236.02C141.8 238.3 141.413 240.073 140.64 241.34C139.88 242.607 138.667 243.24 137 243.24ZM137 241.78C137.547 241.78 138.013 241.667 138.4 241.44C138.787 241.213 139.1 240.893 139.34 240.48C139.58 240.067 139.753 239.58 139.86 239.02C139.98 238.46 140.04 237.84 140.04 237.16V234.88C140.04 234.2 139.98 233.58 139.86 233.02C139.753 232.46 139.58 231.973 139.34 231.56C139.1 231.147 138.787 230.827 138.4 230.6C138.013 230.373 137.547 230.26 137 230.26C136.453 230.26 135.987 230.373 135.6 230.6C135.213 230.827 134.9 231.147 134.66 231.56C134.42 231.973 134.24 232.46 134.12 233.02C134.013 233.58 133.96 234.2 133.96 234.88V237.16C133.96 237.84 134.013 238.46 134.12 239.02C134.24 239.58 134.42 240.067 134.66 240.48C134.9 240.893 135.213 241.213 135.6 241.44C135.987 241.667 136.453 241.78 137 241.78Z" fill="black"/>
<path d="M210.668 243H201.508V241.28L206.068 237.08C206.721 236.48 207.268 235.847 207.708 235.18C208.148 234.5 208.368 233.82 208.368 233.14V232.9C208.368 232.127 208.154 231.5 207.728 231.02C207.301 230.54 206.654 230.3 205.788 230.3C205.361 230.3 204.988 230.36 204.668 230.48C204.348 230.6 204.068 230.767 203.828 230.98C203.601 231.193 203.408 231.447 203.248 231.74C203.101 232.02 202.981 232.327 202.888 232.66L201.388 232.08C201.521 231.667 201.701 231.267 201.928 230.88C202.168 230.48 202.461 230.127 202.808 229.82C203.168 229.513 203.594 229.267 204.088 229.08C204.594 228.893 205.188 228.8 205.868 228.8C206.548 228.8 207.154 228.9 207.688 229.1C208.221 229.3 208.668 229.58 209.028 229.94C209.388 230.3 209.661 230.727 209.848 231.22C210.048 231.713 210.148 232.26 210.148 232.86C210.148 233.407 210.068 233.913 209.908 234.38C209.761 234.847 209.554 235.293 209.288 235.72C209.021 236.133 208.694 236.54 208.308 236.94C207.934 237.34 207.528 237.74 207.088 238.14L203.328 241.52H210.668V243ZM222.66 243H213.5V241.28L218.06 237.08C218.713 236.48 219.26 235.847 219.7 235.18C220.14 234.5 220.36 233.82 220.36 233.14V232.9C220.36 232.127 220.147 231.5 219.72 231.02C219.293 230.54 218.647 230.3 217.78 230.3C217.353 230.3 216.98 230.36 216.66 230.48C216.34 230.6 216.06 230.767 215.82 230.98C215.593 231.193 215.4 231.447 215.24 231.74C215.093 232.02 214.973 232.327 214.88 232.66L213.38 232.08C213.513 231.667 213.693 231.267 213.92 230.88C214.16 230.48 214.453 230.127 214.8 229.82C215.16 229.513 215.587 229.267 216.08 229.08C216.587 228.893 217.18 228.8 217.86 228.8C218.54 228.8 219.147 228.9 219.68 229.1C220.213 229.3 220.66 229.58 221.02 229.94C221.38 230.3 221.653 230.727 221.84 231.22C222.04 231.713 222.14 232.26 222.14 232.86C222.14 233.407 222.06 233.913 221.9 234.38C221.753 234.847 221.547 235.293 221.28 235.72C221.013 236.133 220.687 236.54 220.3 236.94C219.927 237.34 219.52 237.74 219.08 238.14L215.32 241.52H222.66V243Z" fill="black"/>
<path d="M253.668 243H244.508V241.28L249.068 237.08C249.721 236.48 250.268 235.847 250.708 235.18C251.148 234.5 251.368 233.82 251.368 233.14V232.9C251.368 232.127 251.154 231.5 250.728 231.02C250.301 230.54 249.654 230.3 248.788 230.3C248.361 230.3 247.988 230.36 247.668 230.48C247.348 230.6 247.068 230.767 246.828 230.98C246.601 231.193 246.408 231.447 246.248 231.74C246.101 232.02 245.981 232.327 245.888 232.66L244.388 232.08C244.521 231.667 244.701 231.267 244.928 230.88C245.168 230.48 245.461 230.127 245.808 229.82C246.168 229.513 246.594 229.267 247.088 229.08C247.594 228.893 248.188 228.8 248.868 228.8C249.548 228.8 250.154 228.9 250.688 229.1C251.221 229.3 251.668 229.58 252.028 229.94C252.388 230.3 252.661 230.727 252.848 231.22C253.048 231.713 253.148 232.26 253.148 232.86C253.148 233.407 253.068 233.913 252.908 234.38C252.761 234.847 252.554 235.293 252.288 235.72C252.021 236.133 251.694 236.54 251.308 236.94C250.934 237.34 250.528 237.74 250.088 238.14L246.328 241.52H253.668V243ZM260.22 234.96C261.167 234.96 261.873 234.747 262.34 234.32C262.82 233.88 263.06 233.32 263.06 232.64V232.5C263.06 231.767 262.827 231.22 262.36 230.86C261.907 230.487 261.307 230.3 260.56 230.3C259.84 230.3 259.253 230.46 258.8 230.78C258.347 231.087 257.973 231.507 257.68 232.04L256.44 231.08C256.613 230.8 256.82 230.527 257.06 230.26C257.313 229.98 257.607 229.733 257.94 229.52C258.273 229.307 258.66 229.133 259.1 229C259.54 228.867 260.04 228.8 260.6 228.8C261.187 228.8 261.74 228.88 262.26 229.04C262.78 229.187 263.227 229.413 263.6 229.72C263.987 230.013 264.287 230.38 264.5 230.82C264.727 231.26 264.84 231.76 264.84 232.32C264.84 232.773 264.767 233.18 264.62 233.54C264.487 233.9 264.3 234.213 264.06 234.48C263.82 234.747 263.533 234.973 263.2 235.16C262.88 235.347 262.533 235.487 262.16 235.58V235.66C262.533 235.74 262.893 235.873 263.24 236.06C263.6 236.233 263.913 236.467 264.18 236.76C264.46 237.04 264.68 237.387 264.84 237.8C265.013 238.2 265.1 238.66 265.1 239.18C265.1 239.78 264.987 240.333 264.76 240.84C264.533 241.333 264.213 241.76 263.8 242.12C263.387 242.467 262.887 242.74 262.3 242.94C261.713 243.14 261.067 243.24 260.36 243.24C259.76 243.24 259.227 243.173 258.76 243.04C258.293 242.907 257.88 242.727 257.52 242.5C257.16 242.273 256.84 242.02 256.56 241.74C256.293 241.46 256.053 241.167 255.84 240.86L257.1 239.9C257.273 240.18 257.46 240.433 257.66 240.66C257.873 240.887 258.107 241.08 258.36 241.24C258.613 241.4 258.9 241.527 259.22 241.62C259.54 241.7 259.913 241.74 260.34 241.74C261.327 241.74 262.073 241.52 262.58 241.08C263.087 240.627 263.34 239.987 263.34 239.16V239C263.34 238.173 263.087 237.54 262.58 237.1C262.073 236.647 261.327 236.42 260.34 236.42H258.7V234.96H260.22Z" fill="black"/>
<path d="M171.668 243H162.508V241.28L167.068 237.08C167.721 236.48 168.268 235.847 168.708 235.18C169.148 234.5 169.368 233.82 169.368 233.14V232.9C169.368 232.127 169.154 231.5 168.728 231.02C168.301 230.54 167.654 230.3 166.788 230.3C166.361 230.3 165.988 230.36 165.668 230.48C165.348 230.6 165.068 230.767 164.828 230.98C164.601 231.193 164.408 231.447 164.248 231.74C164.101 232.02 163.981 232.327 163.888 232.66L162.388 232.08C162.521 231.667 162.701 231.267 162.928 230.88C163.168 230.48 163.461 230.127 163.808 229.82C164.168 229.513 164.594 229.267 165.088 229.08C165.594 228.893 166.188 228.8 166.868 228.8C167.548 228.8 168.154 228.9 168.688 229.1C169.221 229.3 169.668 229.58 170.028 229.94C170.388 230.3 170.661 230.727 170.848 231.22C171.048 231.713 171.148 232.26 171.148 232.86C171.148 233.407 171.068 233.913 170.908 234.38C170.761 234.847 170.554 235.293 170.288 235.72C170.021 236.133 169.694 236.54 169.308 236.94C168.934 237.34 168.528 237.74 168.088 238.14L164.328 241.52H171.668V243ZM174.76 243V241.52H178.66V230.28H178.52L175 233.56L174.02 232.5L177.72 229.04H180.34V241.52H183.94V243H174.76Z" fill="black"/>
<path d="M48.6678 282H39.5078V280.28L44.0678 276.08C44.7211 275.48 45.2678 274.847 45.7078 274.18C46.1478 273.5 46.3678 272.82 46.3678 272.14V271.9C46.3678 271.127 46.1545 270.5 45.7278 270.02C45.3011 269.54 44.6545 269.3 43.7878 269.3C43.3611 269.3 42.9878 269.36 42.6678 269.48C42.3478 269.6 42.0678 269.767 41.8278 269.98C41.6011 270.193 41.4078 270.447 41.2478 270.74C41.1011 271.02 40.9811 271.327 40.8878 271.66L39.3878 271.08C39.5211 270.667 39.7011 270.267 39.9278 269.88C40.1678 269.48 40.4611 269.127 40.8078 268.82C41.1678 268.513 41.5945 268.267 42.0878 268.08C42.5945 267.893 43.1878 267.8 43.8678 267.8C44.5478 267.8 45.1545 267.9 45.6878 268.1C46.2211 268.3 46.6678 268.58 47.0278 268.94C47.3878 269.3 47.6611 269.727 47.8478 270.22C48.0478 270.713 48.1478 271.26 48.1478 271.86C48.1478 272.407 48.0678 272.913 47.9078 273.38C47.7611 273.847 47.5545 274.293 47.2878 274.72C47.0211 275.133 46.6945 275.54 46.3078 275.94C45.9345 276.34 45.5278 276.74 45.0878 277.14L41.3278 280.52H48.6678V282ZM59.96 269.52H53.84L53.44 274.84H53.58C53.9133 274.373 54.2867 274 54.7 273.72C55.1267 273.44 55.7067 273.3 56.44 273.3C57.04 273.3 57.5933 273.4 58.1 273.6C58.6067 273.8 59.0467 274.087 59.42 274.46C59.7933 274.82 60.08 275.267 60.28 275.8C60.4933 276.333 60.6 276.94 60.6 277.62C60.6 278.3 60.4933 278.927 60.28 279.5C60.0667 280.06 59.7533 280.547 59.34 280.96C58.94 281.36 58.4467 281.673 57.86 281.9C57.2867 282.127 56.6333 282.24 55.9 282.24C55.3133 282.24 54.7933 282.173 54.34 282.04C53.9 281.907 53.5067 281.727 53.16 281.5C52.8133 281.273 52.5067 281.02 52.24 280.74C51.9867 280.46 51.7533 280.167 51.54 279.86L52.8 278.9C52.9733 279.18 53.1533 279.433 53.34 279.66C53.54 279.887 53.7533 280.08 53.98 280.24C54.22 280.4 54.4933 280.527 54.8 280.62C55.1067 280.7 55.4733 280.74 55.9 280.74C56.86 280.74 57.5867 280.487 58.08 279.98C58.5733 279.473 58.82 278.76 58.82 277.84V277.64C58.82 276.72 58.5733 276.007 58.08 275.5C57.5867 274.993 56.86 274.74 55.9 274.74C55.26 274.74 54.7533 274.86 54.38 275.1C54.02 275.327 53.6933 275.6 53.4 275.92L51.98 275.72L52.48 268.04H59.96V269.52Z" fill="black"/>
<path d="M89.6678 282H80.5078V280.28L85.0678 276.08C85.7211 275.48 86.2678 274.847 86.7078 274.18C87.1478 273.5 87.3678 272.82 87.3678 272.14V271.9C87.3678 271.127 87.1545 270.5 86.7278 270.02C86.3011 269.54 85.6545 269.3 84.7878 269.3C84.3611 269.3 83.9878 269.36 83.6678 269.48C83.3478 269.6 83.0678 269.767 82.8278 269.98C82.6011 270.193 82.4078 270.447 82.2478 270.74C82.1011 271.02 81.9811 271.327 81.8878 271.66L80.3878 271.08C80.5211 270.667 80.7011 270.267 80.9278 269.88C81.1678 269.48 81.4611 269.127 81.8078 268.82C82.1678 268.513 82.5945 268.267 83.0878 268.08C83.5945 267.893 84.1878 267.8 84.8678 267.8C85.5478 267.8 86.1545 267.9 86.6878 268.1C87.2211 268.3 87.6678 268.58 88.0278 268.94C88.3878 269.3 88.6611 269.727 88.8478 270.22C89.0478 270.713 89.1478 271.26 89.1478 271.86C89.1478 272.407 89.0678 272.913 88.9078 273.38C88.7611 273.847 88.5545 274.293 88.2878 274.72C88.0211 275.133 87.6945 275.54 87.3078 275.94C86.9345 276.34 86.5278 276.74 86.0878 277.14L82.3278 280.52H89.6678V282ZM97.02 282.24C96.3 282.24 95.6467 282.12 95.06 281.88C94.4867 281.627 93.9933 281.273 93.58 280.82C93.18 280.353 92.8733 279.787 92.66 279.12C92.4467 278.453 92.34 277.707 92.34 276.88C92.34 275.84 92.4933 274.867 92.8 273.96C93.1067 273.04 93.5 272.207 93.98 271.46C94.4733 270.7 95.0133 270.033 95.6 269.46C96.1867 268.873 96.76 268.4 97.32 268.04H99.48C98.7333 268.587 98.0667 269.12 97.48 269.64C96.8933 270.16 96.38 270.707 95.94 271.28C95.5 271.84 95.1267 272.447 94.82 273.1C94.5133 273.74 94.2667 274.467 94.08 275.28L94.18 275.32C94.5133 274.747 94.94 274.273 95.46 273.9C95.9933 273.513 96.6867 273.32 97.54 273.32C98.14 273.32 98.6933 273.42 99.2 273.62C99.7067 273.82 100.14 274.107 100.5 274.48C100.86 274.853 101.14 275.307 101.34 275.84C101.553 276.373 101.66 276.967 101.66 277.62C101.66 278.3 101.547 278.927 101.32 279.5C101.107 280.06 100.793 280.547 100.38 280.96C99.98 281.36 99.4933 281.673 98.92 281.9C98.3467 282.127 97.7133 282.24 97.02 282.24ZM97 280.78C97.92 280.78 98.6333 280.527 99.14 280.02C99.66 279.513 99.92 278.787 99.92 277.84V277.68C99.92 276.733 99.66 276.007 99.14 275.5C98.6333 274.993 97.92 274.74 97 274.74C96.08 274.74 95.36 274.993 94.84 275.5C94.3333 276.007 94.08 276.733 94.08 277.68V277.84C94.08 278.787 94.3333 279.513 94.84 280.02C95.36 280.527 96.08 280.78 97 280.78Z" fill="black"/>
<path d="M129.668 282H120.508V280.28L125.068 276.08C125.721 275.48 126.268 274.847 126.708 274.18C127.148 273.5 127.368 272.82 127.368 272.14V271.9C127.368 271.127 127.154 270.5 126.728 270.02C126.301 269.54 125.654 269.3 124.788 269.3C124.361 269.3 123.988 269.36 123.668 269.48C123.348 269.6 123.068 269.767 122.828 269.98C122.601 270.193 122.408 270.447 122.248 270.74C122.101 271.02 121.981 271.327 121.888 271.66L120.388 271.08C120.521 270.667 120.701 270.267 120.928 269.88C121.168 269.48 121.461 269.127 121.808 268.82C122.168 268.513 122.594 268.267 123.088 268.08C123.594 267.893 124.188 267.8 124.868 267.8C125.548 267.8 126.154 267.9 126.688 268.1C127.221 268.3 127.668 268.58 128.028 268.94C128.388 269.3 128.661 269.727 128.848 270.22C129.048 270.713 129.148 271.26 129.148 271.86C129.148 272.407 129.068 272.913 128.908 273.38C128.761 273.847 128.554 274.293 128.288 274.72C128.021 275.133 127.694 275.54 127.308 275.94C126.934 276.34 126.528 276.74 126.088 277.14L122.328 280.52H129.668V282ZM134.5 282L139.84 269.48H133.88V272.08H132.38V268.04H141.54V269.52L136.3 282H134.5Z" fill="black"/>
<path d="M170.668 282H161.508V280.28L166.068 276.08C166.721 275.48 167.268 274.847 167.708 274.18C168.148 273.5 168.368 272.82 168.368 272.14V271.9C168.368 271.127 168.154 270.5 167.728 270.02C167.301 269.54 166.654 269.3 165.788 269.3C165.361 269.3 164.988 269.36 164.668 269.48C164.348 269.6 164.068 269.767 163.828 269.98C163.601 270.193 163.408 270.447 163.248 270.74C163.101 271.02 162.981 271.327 162.888 271.66L161.388 271.08C161.521 270.667 161.701 270.267 161.928 269.88C162.168 269.48 162.461 269.127 162.808 268.82C163.168 268.513 163.594 268.267 164.088 268.08C164.594 267.893 165.188 267.8 165.868 267.8C166.548 267.8 167.154 267.9 167.688 268.1C168.221 268.3 168.668 268.58 169.028 268.94C169.388 269.3 169.661 269.727 169.848 270.22C170.048 270.713 170.148 271.26 170.148 271.86C170.148 272.407 170.068 272.913 169.908 273.38C169.761 273.847 169.554 274.293 169.288 274.72C169.021 275.133 168.694 275.54 168.308 275.94C167.934 276.34 167.528 276.74 167.088 277.14L163.328 280.52H170.668V282ZM178 282.24C177.2 282.24 176.5 282.14 175.9 281.94C175.3 281.727 174.793 281.44 174.38 281.08C173.98 280.72 173.673 280.293 173.46 279.8C173.26 279.307 173.16 278.773 173.16 278.2C173.16 277.24 173.42 276.48 173.94 275.92C174.46 275.36 175.14 274.967 175.98 274.74V274.58C175.247 274.327 174.66 273.92 174.22 273.36C173.793 272.787 173.58 272.1 173.58 271.3C173.58 270.233 173.967 269.387 174.74 268.76C175.513 268.12 176.6 267.8 178 267.8C179.4 267.8 180.487 268.12 181.26 268.76C182.033 269.387 182.42 270.233 182.42 271.3C182.42 272.1 182.2 272.787 181.76 273.36C181.333 273.92 180.753 274.327 180.02 274.58V274.74C180.86 274.967 181.54 275.36 182.06 275.92C182.58 276.48 182.84 277.24 182.84 278.2C182.84 278.773 182.733 279.307 182.52 279.8C182.32 280.293 182.013 280.72 181.6 281.08C181.2 281.44 180.7 281.727 180.1 281.94C179.5 282.14 178.8 282.24 178 282.24ZM178 280.78C178.973 280.78 179.727 280.567 180.26 280.14C180.793 279.7 181.06 279.08 181.06 278.28V277.86C181.06 277.06 180.793 276.447 180.26 276.02C179.727 275.58 178.973 275.36 178 275.36C177.027 275.36 176.273 275.58 175.74 276.02C175.207 276.447 174.94 277.06 174.94 277.86V278.28C174.94 279.08 175.207 279.7 175.74 280.14C176.273 280.567 177.027 280.78 178 280.78ZM178 273.96C178.88 273.96 179.547 273.773 180 273.4C180.453 273.027 180.68 272.48 180.68 271.76V271.46C180.68 270.74 180.453 270.193 180 269.82C179.547 269.447 178.88 269.26 178 269.26C177.12 269.26 176.453 269.447 176 269.82C175.547 270.193 175.32 270.74 175.32 271.46V271.76C175.32 272.48 175.547 273.027 176 273.4C176.453 273.773 177.12 273.96 178 273.96Z" fill="black"/>
<path d="M211.668 282H202.508V280.28L207.068 276.08C207.721 275.48 208.268 274.847 208.708 274.18C209.148 273.5 209.368 272.82 209.368 272.14V271.9C209.368 271.127 209.154 270.5 208.728 270.02C208.301 269.54 207.654 269.3 206.788 269.3C206.361 269.3 205.988 269.36 205.668 269.48C205.348 269.6 205.068 269.767 204.828 269.98C204.601 270.193 204.408 270.447 204.248 270.74C204.101 271.02 203.981 271.327 203.888 271.66L202.388 271.08C202.521 270.667 202.701 270.267 202.928 269.88C203.168 269.48 203.461 269.127 203.808 268.82C204.168 268.513 204.594 268.267 205.088 268.08C205.594 267.893 206.188 267.8 206.868 267.8C207.548 267.8 208.154 267.9 208.688 268.1C209.221 268.3 209.668 268.58 210.028 268.94C210.388 269.3 210.661 269.727 210.848 270.22C211.048 270.713 211.148 271.26 211.148 271.86C211.148 272.407 211.068 272.913 210.908 273.38C210.761 273.847 210.554 274.293 210.288 274.72C210.021 275.133 209.694 275.54 209.308 275.94C208.934 276.34 208.528 276.74 208.088 277.14L204.328 280.52H211.668V282ZM223.66 273.16C223.66 274.2 223.507 275.18 223.2 276.1C222.893 277.007 222.493 277.84 222 278.6C221.52 279.347 220.987 280.013 220.4 280.6C219.813 281.173 219.24 281.64 218.68 282H216.52C217.267 281.453 217.933 280.92 218.52 280.4C219.107 279.88 219.62 279.34 220.06 278.78C220.5 278.207 220.873 277.6 221.18 276.96C221.487 276.307 221.733 275.573 221.92 274.76L221.82 274.72C221.487 275.293 221.053 275.773 220.52 276.16C220 276.533 219.313 276.72 218.46 276.72C217.86 276.72 217.307 276.62 216.8 276.42C216.293 276.22 215.86 275.933 215.5 275.56C215.14 275.187 214.853 274.74 214.64 274.22C214.44 273.687 214.34 273.087 214.34 272.42C214.34 271.74 214.447 271.12 214.66 270.56C214.887 269.987 215.2 269.5 215.6 269.1C216.013 268.687 216.5 268.367 217.06 268.14C217.633 267.913 218.273 267.8 218.98 267.8C219.7 267.8 220.347 267.927 220.92 268.18C221.507 268.42 222 268.773 222.4 269.24C222.813 269.693 223.127 270.253 223.34 270.92C223.553 271.587 223.66 272.333 223.66 273.16ZM219 275.3C219.92 275.3 220.633 275.047 221.14 274.54C221.66 274.033 221.92 273.307 221.92 272.36V272.2C221.92 271.253 221.66 270.527 221.14 270.02C220.633 269.513 219.92 269.26 219 269.26C218.08 269.26 217.36 269.513 216.84 270.02C216.333 270.527 216.08 271.253 216.08 272.2V272.36C216.08 273.307 216.333 274.033 216.84 274.54C217.36 275.047 218.08 275.3 219 275.3Z" fill="black"/>
<path d="M245.228 273.96C246.174 273.96 246.881 273.747 247.348 273.32C247.828 272.88 248.068 272.32 248.068 271.64V271.5C248.068 270.767 247.834 270.22 247.368 269.86C246.914 269.487 246.314 269.3 245.568 269.3C244.848 269.3 244.261 269.46 243.808 269.78C243.354 270.087 242.981 270.507 242.688 271.04L241.448 270.08C241.621 269.8 241.828 269.527 242.068 269.26C242.321 268.98 242.614 268.733 242.948 268.52C243.281 268.307 243.668 268.133 244.108 268C244.548 267.867 245.048 267.8 245.608 267.8C246.194 267.8 246.748 267.88 247.268 268.04C247.788 268.187 248.234 268.413 248.608 268.72C248.994 269.013 249.294 269.38 249.508 269.82C249.734 270.26 249.848 270.76 249.848 271.32C249.848 271.773 249.774 272.18 249.628 272.54C249.494 272.9 249.308 273.213 249.068 273.48C248.828 273.747 248.541 273.973 248.208 274.16C247.888 274.347 247.541 274.487 247.168 274.58V274.66C247.541 274.74 247.901 274.873 248.248 275.06C248.608 275.233 248.921 275.467 249.188 275.76C249.468 276.04 249.688 276.387 249.848 276.8C250.021 277.2 250.108 277.66 250.108 278.18C250.108 278.78 249.994 279.333 249.768 279.84C249.541 280.333 249.221 280.76 248.808 281.12C248.394 281.467 247.894 281.74 247.308 281.94C246.721 282.14 246.074 282.24 245.368 282.24C244.768 282.24 244.234 282.173 243.768 282.04C243.301 281.907 242.888 281.727 242.528 281.5C242.168 281.273 241.848 281.02 241.568 280.74C241.301 280.46 241.061 280.167 240.848 279.86L242.108 278.9C242.281 279.18 242.468 279.433 242.668 279.66C242.881 279.887 243.114 280.08 243.368 280.24C243.621 280.4 243.908 280.527 244.228 280.62C244.548 280.7 244.921 280.74 245.348 280.74C246.334 280.74 247.081 280.52 247.588 280.08C248.094 279.627 248.348 278.987 248.348 278.16V278C248.348 277.173 248.094 276.54 247.588 276.1C247.081 275.647 246.334 275.42 245.348 275.42H243.708V273.96H245.228ZM258 282.24C256.333 282.24 255.113 281.607 254.34 280.34C253.58 279.073 253.2 277.3 253.2 275.02C253.2 272.74 253.58 270.967 254.34 269.7C255.113 268.433 256.333 267.8 258 267.8C259.667 267.8 260.88 268.433 261.64 269.7C262.413 270.967 262.8 272.74 262.8 275.02C262.8 277.3 262.413 279.073 261.64 280.34C260.88 281.607 259.667 282.24 258 282.24ZM258 280.78C258.547 280.78 259.013 280.667 259.4 280.44C259.787 280.213 260.1 279.893 260.34 279.48C260.58 279.067 260.753 278.58 260.86 278.02C260.98 277.46 261.04 276.84 261.04 276.16V273.88C261.04 273.2 260.98 272.58 260.86 272.02C260.753 271.46 260.58 270.973 260.34 270.56C260.1 270.147 259.787 269.827 259.4 269.6C259.013 269.373 258.547 269.26 258 269.26C257.453 269.26 256.987 269.373 256.6 269.6C256.213 269.827 255.9 270.147 255.66 270.56C255.42 270.973 255.24 271.46 255.12 272.02C255.013 272.58 254.96 273.2 254.96 273.88V276.16C254.96 276.84 255.013 277.46 255.12 278.02C255.24 278.58 255.42 279.067 255.66 279.48C255.9 279.893 256.213 280.213 256.6 280.44C256.987 280.667 257.453 280.78 258 280.78Z" fill="black"/>
<path d="M286.228 273.96C287.174 273.96 287.881 273.747 288.348 273.32C288.828 272.88 289.068 272.32 289.068 271.64V271.5C289.068 270.767 288.834 270.22 288.368 269.86C287.914 269.487 287.314 269.3 286.568 269.3C285.848 269.3 285.261 269.46 284.808 269.78C284.354 270.087 283.981 270.507 283.688 271.04L282.448 270.08C282.621 269.8 282.828 269.527 283.068 269.26C283.321 268.98 283.614 268.733 283.948 268.52C284.281 268.307 284.668 268.133 285.108 268C285.548 267.867 286.048 267.8 286.608 267.8C287.194 267.8 287.748 267.88 288.268 268.04C288.788 268.187 289.234 268.413 289.608 268.72C289.994 269.013 290.294 269.38 290.508 269.82C290.734 270.26 290.848 270.76 290.848 271.32C290.848 271.773 290.774 272.18 290.628 272.54C290.494 272.9 290.308 273.213 290.068 273.48C289.828 273.747 289.541 273.973 289.208 274.16C288.888 274.347 288.541 274.487 288.168 274.58V274.66C288.541 274.74 288.901 274.873 289.248 275.06C289.608 275.233 289.921 275.467 290.188 275.76C290.468 276.04 290.688 276.387 290.848 276.8C291.021 277.2 291.108 277.66 291.108 278.18C291.108 278.78 290.994 279.333 290.768 279.84C290.541 280.333 290.221 280.76 289.808 281.12C289.394 281.467 288.894 281.74 288.308 281.94C287.721 282.14 287.074 282.24 286.368 282.24C285.768 282.24 285.234 282.173 284.768 282.04C284.301 281.907 283.888 281.727 283.528 281.5C283.168 281.273 282.848 281.02 282.568 280.74C282.301 280.46 282.061 280.167 281.848 279.86L283.108 278.9C283.281 279.18 283.468 279.433 283.668 279.66C283.881 279.887 284.114 280.08 284.368 280.24C284.621 280.4 284.908 280.527 285.228 280.62C285.548 280.7 285.921 280.74 286.348 280.74C287.334 280.74 288.081 280.52 288.588 280.08C289.094 279.627 289.348 278.987 289.348 278.16V278C289.348 277.173 289.094 276.54 288.588 276.1C288.081 275.647 287.334 275.42 286.348 275.42H284.708V273.96H286.228ZM294.76 282V280.52H298.66V269.28H298.52L295 272.56L294.02 271.5L297.72 268.04H300.34V280.52H303.94V282H294.76Z" fill="black"/>
</svg>
