<svg width="89" height="146" viewBox="0 0 89 146" fill="none" xmlns="http://www.w3.org/2000/svg">
<path d="M2 139.301V5C2 3.34315 3.34315 2 5 2H84C85.6569 2 87 3.34314 87 5V139.838C87 142.34 84.1188 143.743 82.1498 142.2L43.7093 112.083C42.5659 111.187 40.945 111.239 39.8614 112.206L6.99768 141.539C5.06434 143.265 2 141.893 2 139.301Z" fill="#CD3E3E" stroke="#C03737" stroke-width="4"/>
<path d="M11.0048 69V55.04H20.5048V57.74H14.0448V60.6H19.5848V63.28H14.0448V66.3H20.5048V69H11.0048ZM21.9733 69L25.4333 63.66L22.0133 58.5H25.3733L27.3333 61.8H27.4133L29.3133 58.5H32.4333L28.9533 63.76L32.4533 69H29.0933L27.0733 65.58H26.9933L25.0533 69H21.9733ZM34.1847 58.5H37.1447V60.26H37.2447C37.3914 59.6733 37.7247 59.1933 38.2447 58.82C38.778 58.4467 39.3847 58.26 40.0647 58.26C41.398 58.26 42.4047 58.7267 43.0847 59.66C43.7647 60.5933 44.1047 61.9533 44.1047 63.74C44.1047 65.5267 43.7647 66.8933 43.0847 67.84C42.4047 68.7733 41.398 69.24 40.0647 69.24C39.718 69.24 39.3914 69.1867 39.0847 69.08C38.778 68.9867 38.498 68.8533 38.2447 68.68C38.0047 68.4933 37.798 68.28 37.6247 68.04C37.4514 67.7867 37.3247 67.52 37.2447 67.24H37.1447V73H34.1847V58.5ZM39.0847 66.84C39.6447 66.84 40.1047 66.6467 40.4647 66.26C40.838 65.86 41.0247 65.3267 41.0247 64.66V62.84C41.0247 62.1733 40.838 61.6467 40.4647 61.26C40.1047 60.86 39.6447 60.66 39.0847 60.66C38.5247 60.66 38.058 60.8 37.6847 61.08C37.3247 61.3467 37.1447 61.72 37.1447 62.2V65.3C37.1447 65.78 37.3247 66.16 37.6847 66.44C38.058 66.7067 38.5247 66.84 39.0847 66.84ZM49.2927 69C48.2793 69 47.5327 68.7533 47.0527 68.26C46.586 67.7667 46.3527 67.0533 46.3527 66.12V54.2H49.3127V66.7H50.6327V69H49.2927ZM56.6673 69.24C55.894 69.24 55.2007 69.1133 54.5873 68.86C53.9873 68.6067 53.474 68.24 53.0473 67.76C52.634 67.28 52.314 66.7 52.0873 66.02C51.8607 65.34 51.7473 64.58 51.7473 63.74C51.7473 62.9 51.8607 62.14 52.0873 61.46C52.314 60.78 52.634 60.2067 53.0473 59.74C53.474 59.26 53.9873 58.8933 54.5873 58.64C55.2007 58.3867 55.894 58.26 56.6673 58.26C57.4407 58.26 58.1273 58.3867 58.7273 58.64C59.3407 58.8933 59.854 59.26 60.2673 59.74C60.694 60.2067 61.0207 60.78 61.2473 61.46C61.474 62.14 61.5873 62.9 61.5873 63.74C61.5873 64.58 61.474 65.34 61.2473 66.02C61.0207 66.7 60.694 67.28 60.2673 67.76C59.854 68.24 59.3407 68.6067 58.7273 68.86C58.1273 69.1133 57.4407 69.24 56.6673 69.24ZM56.6673 66.9C57.254 66.9 57.7073 66.72 58.0273 66.36C58.3473 66 58.5073 65.4867 58.5073 64.82V62.68C58.5073 62.0133 58.3473 61.5 58.0273 61.14C57.7073 60.78 57.254 60.6 56.6673 60.6C56.0807 60.6 55.6273 60.78 55.3073 61.14C54.9873 61.5 54.8273 62.0133 54.8273 62.68V64.82C54.8273 65.4867 54.9873 66 55.3073 66.36C55.6273 66.72 56.0807 66.9 56.6673 66.9ZM63.6964 69V58.5H66.6564V60.78H66.7564C66.8097 60.4867 66.9031 60.2067 67.0364 59.94C67.1697 59.66 67.3431 59.4133 67.5564 59.2C67.7831 58.9867 68.0497 58.82 68.3564 58.7C68.6631 58.5667 69.0231 58.5 69.4364 58.5H69.9564V61.26H69.2164C68.3497 61.26 67.7031 61.3733 67.2764 61.6C66.8631 61.8267 66.6564 62.2467 66.6564 62.86V69H63.6964ZM76.0647 69.24C75.2647 69.24 74.5514 69.1133 73.9247 68.86C73.298 68.5933 72.7647 68.2267 72.3247 67.76C71.898 67.28 71.5714 66.7 71.3447 66.02C71.1314 65.34 71.0247 64.58 71.0247 63.74C71.0247 62.9133 71.1314 62.1667 71.3447 61.5C71.558 60.82 71.8714 60.24 72.2847 59.76C72.7114 59.28 73.2314 58.9133 73.8447 58.66C74.458 58.3933 75.158 58.26 75.9447 58.26C76.8114 58.26 77.5514 58.4067 78.1647 58.7C78.7914 58.9933 79.298 59.3867 79.6847 59.88C80.0847 60.3733 80.3714 60.9467 80.5447 61.6C80.7314 62.24 80.8247 62.9133 80.8247 63.62V64.5H74.0847V64.66C74.0847 65.3533 74.2714 65.9067 74.6447 66.32C75.018 66.72 75.6047 66.92 76.4047 66.92C77.018 66.92 77.518 66.8 77.9047 66.56C78.2914 66.3067 78.6514 66.0067 78.9847 65.66L80.4647 67.5C79.998 68.0467 79.3847 68.4733 78.6247 68.78C77.878 69.0867 77.0247 69.24 76.0647 69.24ZM76.0047 60.44C75.4047 60.44 74.9314 60.64 74.5847 61.04C74.2514 61.4267 74.0847 61.9467 74.0847 62.6V62.76H77.7647V62.58C77.7647 61.94 77.618 61.4267 77.3247 61.04C77.0447 60.64 76.6047 60.44 76.0047 60.44Z" fill="white"/>
</svg>
